/* XPM */
static char *result[] = {
/* columns rows colors chars-per-pixel */
"24 24 14 1 ",
"  c #4A3B1E",
". c #4A3A1F",
"X c #4A3B1F",
"o c #4B3B1F",
"O c #E5AA3D",
"+ c #E5AB3D",
"@ c #FDC660",
"# c #FCC760",
"$ c #FDC760",
"% c #2379EA",
"& c #D8B78F",
"* c #FFD7A8",
"= c white",
"- c None",
/* pixels */
"------------------------",
"------------------------",
"------------------------",
"------------------------",
"------o oo.X XXX.X------",
"-----XXOO++#$$@#$$o-----",
"----X%X+++++$$+++$X-----",
"----X%X+===+$X$$$XX-----",
"----XXX+=X=+$$$$$$X-----",
"-----X%X===+$$$$$$X-----",
"-----X%X++++$$$$$$X-----",
"-----XXX+++++$XXXXX-----",
"-------XX++$$$$X--------",
"--------X+&****X--------",
"------XXX+&****X--------",
"------X$$+&****X--------",
"------XX+++$&&$X--------",
"-------XX+$$$$$X--------",
"--------X+$XX+$X--------",
"--------X+X-X+X---------",
"--------XX--XX----------",
"------------------------",
"------------------------",
"------------------------"
};
