/* XPM */
static char *result[] = {
/* columns rows colors chars-per-pixel */
"48 48 193 2 ",
"   c #1E1D1F",
".  c #201E1E",
"X  c #2A1E16",
"o  c #301F13",
"O  c #352416",
"+  c #3A2316",
"@  c #3C2A1B",
"#  c #382719",
"$  c #2E2013",
"%  c #221F21",
"&  c #252424",
"*  c #252B25",
"=  c #2A2B25",
"-  c #282729",
";  c #2B2C2C",
":  c #2A2627",
">  c #362020",
",  c #382221",
"<  c #3B2D22",
"1  c #332924",
"2  c #29382A",
"3  c #353426",
"4  c #373929",
"5  c #2E2F31",
"6  c #2F3531",
"7  c #353B3B",
"8  c #323536",
"9  c #45291A",
"0  c #49331E",
"q  c #6A261B",
"w  c #762C1F",
"e  c #46382A",
"r  c #423C33",
"t  c #53352C",
"y  c #622725",
"u  c #7A2D21",
"i  c #7A2E2B",
"p  c #653933",
"a  c #7E3B31",
"s  c #2B432D",
"d  c #33472E",
"f  c #2D4632",
"g  c #364C31",
"h  c #374736",
"j  c #335233",
"k  c #345D3A",
"l  c #385B38",
"z  c #34633A",
"x  c #3B6E3E",
"c  c #36693C",
"v  c #3C723F",
"b  c #47472C",
"n  c #5D412A",
"m  c #46423A",
"M  c #5B5934",
"N  c #6C5131",
"B  c #43673C",
"V  c #6B6B35",
"C  c #79633D",
"Z  c #6A7637",
"A  c #747835",
"S  c #393D40",
"D  c #3D4743",
"F  c #3D7C44",
"G  c #3A7441",
"H  c #4B5758",
"J  c #535858",
"K  c #474C48",
"L  c #624F48",
"P  c #4A6E47",
"I  c #487A42",
"U  c #686151",
"Y  c #746C66",
"T  c #6D7572",
"R  c #832C27",
"E  c #95342E",
"W  c #A13126",
"Q  c #A3352C",
"!  c #BD332B",
"~  c #B9382D",
"^  c #BB3B31",
"/  c #A8342D",
"(  c #C7372D",
")  c #D7392F",
"_  c #D8392E",
"`  c #D1362D",
"'  c #C63D33",
"]  c #D63B31",
"[  c #D83A30",
"{  c #92493D",
"}  c #B84536",
"|  c #926D3E",
" . c #846137",
".. c #D5433A",
"X. c #D8453C",
"o. c #DD5C3E",
"O. c #D1533A",
"+. c #98524C",
"@. c #937545",
"#. c #BB605F",
"$. c #91706F",
"%. c #A07E7F",
"&. c #D44B44",
"*. c #D14F49",
"=. c #D1544D",
"-. c #D65243",
";. c #CE5C56",
":. c #C84D4B",
">. c #DD6245",
",. c #D47156",
"<. c #CC6560",
"1. c #C87B79",
"2. c #3E8146",
"3. c #408648",
"4. c #428C4B",
"5. c #4C8848",
"6. c #528947",
"7. c #44914C",
"8. c #49954D",
"9. c #4C994F",
"0. c #54924B",
"q. c #52994C",
"w. c #5A9B4E",
"e. c #4E9C50",
"r. c #519E51",
"t. c #6C8C4A",
"y. c #55A252",
"u. c #5CA653",
"i. c #5EAC55",
"p. c #7AAD4C",
"a. c #61AE56",
"s. c #62A753",
"d. c #63B156",
"f. c #64B458",
"g. c #6EA74C",
"h. c #868838",
"j. c #9FA13E",
"k. c #B78A4E",
"l. c #B7894D",
"z. c #8AB64C",
"x. c #94BB4D",
"c. c #8BAF49",
"v. c #BABD46",
"b. c #B1B544",
"n. c #A6A940",
"m. c #C69353",
"M. c #CA9857",
"N. c #E58855",
"B. c #DBA45C",
"V. c #E2AA5F",
"C. c #CE8A7A",
"Z. c #E5AD62",
"A. c #EEAE62",
"S. c #F1AF63",
"D. c #EEB265",
"F. c #EAB76D",
"G. c #F0B364",
"H. c #E6B678",
"J. c #9CC04C",
"K. c #ABC84D",
"L. c #BCC348",
"P. c #Bfd14D",
"I. c #C7D54E",
"U. c #D6DB4E",
"Y. c #D9DD4F",
"T. c #D2D64C",
"R. c #C5C949",
"E. c #DCE150",
"W. c #7B8486",
"Q. c #7FBACA",
"!. c #898D88",
"~. c #928188",
"^. c #8C96A2",
"/. c #82ACBA",
"(. c #AAA8A9",
"). c #BEB5B7",
"_. c #BCBCBE",
"`. c #B4B7B9",
"'. c #C9A597",
"]. c #D4B893",
"[. c #CEAF8C",
"{. c #E1BE82",
"}. c #C1A3A3",
"|. c #CCBBA4",
" X c #80BBCB",
".X c #BCBEC1",
"XX c #BCC1C3",
"oX c #C1C5C7",
"OX c #D5EBED",
"+X c #DEECED",
"@X c #C3F7FA",
"#X c #DFEFF1",
"$X c None",
/* pixels */
"$X$X$X$X$X$X$X$X$X$X$X$X$X$X$X$X$X$X$X$X$X$X$X$X$X$X$X$X X X X XQ. XQ.$X$X$X$X$X$X$X$X$X$X$X$X$X",
"$X$X$X$X$X$X$X$X$X$X$X$X$X$X$X$X$X$X$X$X$X$X$X$X$X$X$X$X X X X X XQ. X$X$X$X$X$X$X$X$X$X$X$X$X$X",
"$X$X$X$X$X$X$X$X$X$X$X$X$X$X$X$X$X$X$X$X$Xm r r r r r K J T $X$X XQ. X$X$X$X$X$X$X$X$X$X$X$X$X$X",
"$X$X$X$X$X$X$X$X$X$X$X$X$X$X$X$X$X$X$X$X$X< O O # O # o # Y $X XQ.Q. X$X$X$X$X$X$X$X$X$X$X$X$X$X",
"$X$X$X$X$X$X$X$X$X$X$X$X$X$X$X$X$X$X$X$Xr # O O O O O o O 4 K $X$X X X$X$X$X$X$X$X$X$X$X$X$X$X$X",
"$X$X$X$X$X$X$X$X$X$X$X$X$X$X$X$X$X$X$X# O O O O O O O o X X m Y $X X X$X$X$X$X$X$X$X$X$X$X$X$X$X",
"$X$X$X$X$X$X$X$X$X$X$X$X$X$X$X$X$X$XQ u u u u u u u w q q q R +.$.~./.$X@X@X$X$X$X$X$X$X$X$X$X$X",
"$X$X$X$X$X$X$X$X$X$X$X$X$X$X$X$X:.] ] ] ) [ ) ) ) _ ` ! ! ! ( ^ ( } ^.$X@X@X$X$X$X$X$X$X$X$X$X$X",
"$X$X$X$X$X$X$X$X$X$X$X$X$X$X$X$X$X*.-.o.O.Q Q O.o.o.o.O.W W W W W / #.$X$X$X$X$X$X$X$X$X$X$X$X$X",
"$X$X$X$X$X$X$X5 . . . $X$X$X$X$X$X$X$XS.m.1 < M.S.V.S.| o + + + + 9 ' ..$X$X$X$X$X$X$X$X$X$X$X$X",
"$X$X$X5 - - 2 P B I I B & & $X$X$X$X$XG.m.= = M.G.G.G.| o 0 n n # 9 ^ ..$X$X$X$X$X$X$X$X$X$X$X$X",
"$X$XD g g g g w.f.i.6.B g g h $X$X$X$XG.m.= # M.G.G.G.| o N V.m.@ < $X$X&.] $X$X$X$X$X$X$X$X$X$X",
"$X= d u.d.a.a.a.f.w.d B u.s.B h $X$X$XG.m.0 b M.G.G.G.@.0  .A.m.9 < $X$X&.[ $X$X$X$X$X$X$X$X$X$X",
"; P w.a.d.d.d.e.G h _.!.d u.w.5.@.D.G.G.A.V.V.S.G.G.G.V.V.V.G.m.@ @ $X$X*._ $X$X$X$X$X$X$X$X$X$X",
"* v y.y.y.y.y.8.F l !.T l e.i.0.U Z.D.D.G.G.G.G.G.G.G.G.G.V.B.l.e e $X$X=...$X$X$X$X$X$X$X$X$X$X",
"& z 8.7.7.7.4.7.8.3.2 k 8.4.y.0.4 U $XD.G.G.G.G.G.G.G.G.G.l.n 0 $X$X$X$X$X$X$X$X$X$X$X$X$X$X$X$X",
"& l 4.4.4.4.4.4.2.e.2.2.7.7.y.0.= $X$XG.G.S.G.G.G.G.S.D.D.l.# O $X$X$X$X$X$X$X$X$X$X$X$X$X$X$X$X",
"& 2 f s s s s s G 2.e.8.7.7.y.0.= $X$X$X$XF.G.G.S.G.A.D.$X$X$X$X$X$X$X$X$X$X$X$X$X$X$X$X$X$X$X$X",
"; - - ; 5 ; ; & f 2.7.2.7.7.y.0.= $X$X$X$XS.S.S.D.D.D.A.$X$X$X$X$X$X$X$X$X$X$X$X$X$X$X$X$X$X$X$X",
"$X$X$X$X$X$X$X5 j 2.7.7.7.7.y.e.* $X$XXX'.>.o.[.|.|.|.'.] ....;.).XX$X$X$X$X$X$X$X$X$X$X$X$X$X$X",
"$X$X; 5 5 ; ; & * s 2.2.2.e.y.e.= $X$X.X}.....(._._._.1.] ) _ =.).XX$X$X$X$X$X$X$X$X$X$X$X$X$X$X",
"$X$X& & & * - & * * 2.2.9.2.y.e.& T oX.X}...] ;.<.<.<.*.] [ _ =.)..XXXXX$X$X$X$X$X$X$X$X$X$X$X$X",
"$X$X$X$X$X$X$X$X$X* 9.e.2.9.y.w.d T (._.}...) ) _ _ ) ) ) ] _ =.)..X_..X$X$X$X$X$X$X$X$X$X$X$X$X",
"$X$X$X$X$X$X$X$X$X2 b.J.8.2.y.a.u.l J ).}...[ [ ) ) [ [ [ _ _ =.)..X_..X$X$X$X$X$X$X$X$X$X$X$X$X",
"$X$X$X$X$X$X$X$X$X3 L.x.7.7.y.a.d.0.P J %.&.[ [ _ _ ] ] [ [ _ =.|.XX.X.X$X$XH $X$X$X$X$X$X$X$X$X",
"$X$X$X$X$X$X$X$X$X3 L.x.8.4.e.u.d.f.0.g L R R R R R R R R R u +.[.].].].$X$X; $X$X$X$X$X$X$X$X$X",
"$X$X$X#X$X$X$X$X$X3 b.c.2.7.7.9.a.d.a.a.b % % .           .   e Z.G.D.D.$X$X; $X$X$X$X$X$X$X$X$X",
"$X$X+X$X$X$X8 8 = & 0 4 s 2.7.9.a.d.d.d.0.d % K L y y y y y y i ,.N.{.{.U - ; $X$X$X$X$X$X$X$X$X",
"$X$X#X$X$XW.& & & = V A Z 8.2.8.y.i.a.d.f.w.B p E ..) ] ) ) ) ] ) &.(.H P j ; $X$X$X$X$X$X$X$X$X",
"OXOXOX$X$X$X5 $X$X3 v.Y.I.e.8.4.4.y.i.d.d.d.s.g n } ^ ' _ _ ] ) ] ..$.f 0.B ; $X$X$X$X$X$X$X$X$X",
"OXOX$X$X$X$X$X$X$X3 v.E.P.e.7.7.4.8.e.a.a.a.a.s.a.w.4 i [ _ ) ) ] ( M y.9.c ; $X$X$X$X$X$X$X$X$X",
"$X$X$X$X$X$X$X$X$X3 v.Y.I.K.g.7.7.4.8.e.r.y.a.f.f.d.6.N / ~ ) _ ) ` C t.5.c ; $X$X$X$X$X$X$X$X$X",
"$X$X$X$X$X$X$X$X$X3 v.Y.Y.Y.c.2.7.7.7.4.7.9.u.a.a.f.f.5.b N ] ] _ ] ] ' M k 6 $X$X$X$X$X$X$X$X$X",
"$X$X$X$X$X$X$X$X$X4 b.T.U.Y.z.e.7.7.7.7.4.7.7.i.a.a.d.i.a.t.~ ! ! ! ! ! y 7 $X$X$X$X$X$X$X$X$X$X",
"$X$X$X$X$X$X$X$X$X$Xb h.U.U.I.J.8.4.7.7.7.7.7.7.7.8.i.d.f.6.1 , , , > > % : S $X$X$X$X$X$X$X$X$X",
"$X$X$X$X$X$X$X$X$X$X- A E.U.E.I.x.w.7.7.7.7.7.7.8.8.r.y.y.I * * * * &   & & $X$X$X$X$X$X$X$X$X$X",
"$X$X$X$X$X$X$X$X$X$X6 V v.U.Y.Y.U.p.7.7.7.7.7.7.4.7.7.7.7.2.2.2.F 2.k & $X$X$X$X$X$X$X$X$X$X$X$X",
"$X$X$X$X$X$X$X$X$X$X$X$Xb R.U.Y.U.g.7.7.7.7.7.7.8.7.7.7.7.7.7.7.7.7.G & $X$X$X$X$X$X$X$X$X$X$X$X",
"$X$X$X$X$X$X$X$X$X$X$X$X$XM j.E.U.P.z.7.7.7.7.7.4.7.7.7.7.7.7.7.7.k f $X$X$X$X$X$X$X$X$X$X$X$X$X",
"$X$X$X$X$X$X$X$X$X$X$X$X$X- V n.U.E.K.9.7.7.7.7.7.7.7.7.7.7.7.4.G f $X$X$X$X$X$X$X$X$X$X$X$X$X$X",
"$X$X$X$X$X$X$X$X$X$X$X$X$X$X$Xb v.T.K.8.4.7.7.2.3.7.4.4.7.3.3.G - $X$X$X$X$X$X$X$X$X$X$X$X$X$X$X",
"$X$X$X$X$X$X$X$X$X$X$X$X$X$X$X$Xh j.K.8.7.7.4.s j 4.8.8.2.2 * * $X$X$X$X$X$X$X$X$X$X$X$X$X$X$X$X",
"$X$X$X$X$X$X$X$X$X$X$X$X$X$X$X$X$XV Z 8.8.I j 6 2 k 3.G j $X$X$X$X$X$X$X$X$X$X$X$X$X$X$X$X$X$X$X",
"$X$X$X$X$X$X$X$X$X$X$X$X$X$X$X$X$XS f G G z 5 $X$X% c k - $X$X$X$X$X$X$X$X$X$X$X$X$X$X$X$X$X$X$X",
"$X$X$X$X$X$X$X$X$X$X$X$X$X$X$X$X$X$X$X* & & $X$X$X. & 7 $X$X$X$X$X$X$X$X$X$X$X$X$X$X$X$X$X$X$X$X",
"$X$X$X$X$X$X$X$X$X$X$X$X$X$X$X$X$X$X$X& $X$X$X$X$X$X& 8 $X$X$X$X$X$X$X$X$X$X$X$X$X$X$X$X$X$X$X$X",
"$X$X$X$X$X$X$X$X$X$X$X$X$X$X$X$X$X$X7 & $X$X$X$X$XD & 7 $X$X$X$X$X$X$X$X$X$X$X$X$X$X$X$X$X$X$X$X",
"$X$X$X$X$X$X$X$X$X$X$X$X$X$X$X$X$X6 & & $X$X$X$X$X& & 8 $X$X$X$X$X$X$X$X$X$X$X$X$X$X$X$X$X$X$X$X"
};
