/* XPM */
static char *_e281aa768064dbbbd5493ed1f8d220dJ8vFauzsR8ffGi2p[] = {
/* columns rows colors chars-per-pixel */
"36 68 76 1 ",
"  c None",
". c #BF762C",
"X c #BE782D",
"o c #C1772A",
"O c #C2782B",
"+ c #C7812E",
"@ c #CA822E",
"# c #C48130",
"$ c #CD8630",
"% c #D38D32",
"& c #D59133",
"* c #D89434",
"= c #D69B37",
"- c #DF9B37",
"; c #D69C38",
": c #D89F38",
"> c #D7A23D",
", c #DAA23A",
"< c #DDA93C",
"1 c #E4A239",
"2 c #E9A73B",
"3 c #E5AB3E",
"4 c #EBAB3C",
"5 c #ECB23E",
"6 c #DAAB4D",
"7 c #DEB344",
"8 c #DAAC50",
"9 c #E0B143",
"0 c #EDB645",
"q c #E1BA47",
"w c #EDBB41",
"e c #E6B150",
"r c #E1BF50",
"t c #E0BB6F",
"y c #EBC044",
"u c #EFC847",
"i c #EFC64A",
"p c #F0C545",
"a c #F2CA47",
"s c #F0C448",
"d c #F2CC4A",
"f c #F3D44E",
"g c #F4D84F",
"h c #F5DB53",
"j c #F3D45E",
"k c #F7E257",
"l c #F8E457",
"z c #F6E459",
"x c #F8E559",
"c c #F9E85A",
"v c #E3C762",
"b c #EEC267",
"n c #EFC368",
"m c #EED96E",
"M c #F3D662",
"N c #F4D865",
"B c #E3C87A",
"V c #F7EB69",
"C c #F9ED68",
"Z c #FCF67B",
"A c #FCF87C",
"S c #E1BF84",
"D c #E1C087",
"F c #E1C088",
"G c #EACE8A",
"H c #E2C791",
"J c #F9EE89",
"K c #FBF580",
"L c #FEFE86",
"P c #FFFF88",
"I c #FAF4A9",
"U c #FCFBAF",
"Y c #F4EEB1",
"T c #FEfdB0",
"R c #FEFCD5",
"E c #FEFED8",
/* pixels */
"                                    ",
"                                    ",
"           444444444*ooOO           ",
"           444444444*oooO           ",
"           444444444&OOOO           ",
"           442224444&oOOo           ",
"          Bbbtne----&$$$$#          ",
"      RRRRRRRRRBoOOO&4444%oooo      ",
"      ERRRRRRREFoooo%4444%oOOO      ",
"      RRRRRRRREFoooo*4444%ooOO      ",
"      EEEEREEREFoooo*4444&ooOo      ",
"      IIIIIIIIUtoooo*5550&oOoO      ",
"      zxzzxzzzc7oooo,aaaa=oooO      ",
"      xxxlxxllx7oooo:aaaa=oooo      ",
"      llxxxxxzx7oooo,aaaa=oooo      ",
"      lllxxxccc7oooo,daaa=oOoo      ",
"     YJJJJmqqqq<=====<<<<=%%%%+     ",
" RRRRRRRREHOooo=uuaa,.ooO*4444%.OoO ",
" RRRRRRRREHoooo=aaaa,oooO*4444%ooOo ",
" RRRRRRRREHOoOo=aaaa:oooO*4444%ooOo ",
" RRREREREEHooOo=aaaa:ooo.*4444%ooOO ",
" UTUTTTTTTBOoOo=aaaa3%%%&1w5w0%oOoO ",
" LLLLLLLLLvooOo=aaaa54444waaaa=oOOO ",
" LLLLLLLLLvooOo=aaaaw4444waaua&.OOO ",
" LLLLLPPLLvOoOo=aaaaw4444waaaa=ooOO ",
" LLLPLLLLPvooOo=aaaaw4444waaaa=ooOO ",
" LLLPLLLLPvoooo=aaaaw4444agghh;ooOO ",
" LLLLLPLLLvoooo=aaaa54444dccxz>ooOo ",
" LLLLLLLLLvooOo=aaaaw4444axxxx>oOOO ",
" LLLLLLLLPv.oOo;aaaa54444dxzxx>oOOO ",
" LLLLLLLLPvXoOo;aaaap4444axxxx>oOoO ",
" VCCCCCVCCyXoOo;aaaa55444axzxx>oOOO ",
" zxxxxchxxqooOo=aaaaw4442dlzxl>oOoO ",
" hxlzxxxxxqOoOo=aaaaw4442dccxk>oOoO ",
" zxxxxxxxxqoooo=aaaaw4444dxzxl>oOoo ",
" zxxxxxxxlqOoOo=aaaa54449dzzcl;oooO ",
" zczxxxxxcqOoOo=aaaa55442scxxl6oOOO ",
" zxxxxxxxlqOoOo=aaaa54442axxxl;oOOO ",
" zxxxxxxxxqOoOo=aaaa04440dxzll;oOoO ",
" zxxxxxxxcqooOo=aaaa04442sxxlh6oOOO ",
" zxxxxxxzcqOOOo=aaaaw4444dczzc;oOoo ",
" zxzxxxxxxqOoOo=aaaaw4444MZZZZ6oOoO ",
" zccxxxxzcqOoOo=aaaa54544MPLLP8oOoO ",
" zlzxxxxlxqOOOo=aaaaw4444MPLLL8oOOO ",
" zxxxxxxxxqOoOo;aaaaw4442MPLLL8oOOo ",
" zxxxxxxxcqOoOo:aaaaw5550MKKKK6oOOo ",
" zxxxxxxxxqOoOo*aaaafhhhhi0e00&.Ooo ",
" zxxxxxxxxqooOo-aaaaglllla4442%oOoo ",
" zczxxxxxxqOOOo=aaaagxzczi4444%oOoo ",
" zxxzzxxzc7OOOo=adaagxxzxa4444%oOoo ",
" zzzzzkzklq++++;wyyyfkkklp1142%.oXX ",
"      adddayyyy,+@@O,ddaa,OOOO      ",
"      uaaaaadaa,oooo1aaaa;oooo      ",
"      uaaaaaaaa,ooOo:aaaa;oOoo      ",
"      aaaaauaad3oooo,aaaa;oooo      ",
"      dddddaafa<oooo=appa&oOoo      ",
"      hzllzzllz<oooo*5440&OOOO      ",
"      ccllzczzc7oooo*4449%OoOO      ",
"      llllczzlc7ooOO*4442%oooo      ",
"      zzlllcccc7oooO%4442%oooo      ",
"      zzzzhhhhh7O$$O*1111%ooXO      ",
"           445444424%OOOO           ",
"           424444444*oOOO           ",
"           444444442&oOOO           ",
"           444244224&Oooo           ",
"           910042902&OoOX           ",
"                                    ",
"                                    "
};
