/* XPM */
static char *aa4ec113e4f142b4b990eba72a9b68c8b7qP8hSE7FSbSnnB[] = {
/* columns rows colors chars-per-pixel */
"50 50 104 2 ",
"   c None",
".  c #BE762B",
"X  c #C1762A",
"o  c #C37A2C",
"O  c #C6812E",
"+  c #C8832E",
"@  c #C78530",
"#  c #CA8630",
"$  c #CC8B32",
"%  c #C98B38",
"&  c #D48E32",
"*  c #CF9033",
"=  c #D29334",
"-  c #D59937",
";  c #D59C39",
":  c #D7A33E",
">  c #DBA53B",
",  c #DEAA3C",
"<  c #E4A63C",
"1  c #E5AA3C",
"2  c #EAAA3B",
"3  c #E3B23F",
"4  c #EBB13E",
"5  c #DBAC43",
"6  c #D5A449",
"7  c #E7AD46",
"8  c #E6B642",
"9  c #ECB442",
"0  c #E7B942",
"q  c #EBBB42",
"w  c #EDB64C",
"e  c #EDBC4B",
"r  c #EDB651",
"t  c #E4B75A",
"y  c #E7BB61",
"u  c #EDC244",
"i  c #E6C34B",
"p  c #E8C54B",
"a  c #ECCA4C",
"s  c #F0C646",
"d  c #F2CA47",
"f  c #F0C448",
"g  c #F2CD4A",
"h  c #F3D44E",
"j  c #F4D84F",
"k  c #EFC251",
"l  c #ECCE50",
"z  c #EFCA58",
"x  c #F0C552",
"c  c #F2CE5B",
"v  c #Efd451",
"b  c #F2D551",
"n  c #F5DB53",
"m  c #F2D15E",
"M  c #F7E257",
"N  c #F8E457",
"B  c #F7E458",
"V  c #F8E559",
"C  c #F8E85F",
"Z  c #EFC167",
"A  c #F2CD67",
"S  c #F0C56D",
"D  c #F0C86D",
"F  c #F3D563",
"G  c #F5D865",
"H  c #F2CD7B",
"J  c #F3D571",
"K  c #F6E462",
"L  c #F9EA63",
"P  c #F6E56A",
"I  c #F9ED6C",
"U  c #FAF06D",
"Y  c #F7E470",
"T  c #F9EC76",
"R  c #F7EF7D",
"E  c #FAED78",
"W  c #FBF374",
"Q  c #F7F07E",
"!  c #FBF57B",
"~  c #fdF97F",
"^  c #F3D58A",
"/  c #F2D994",
"(  c #F9ED80",
")  c #FCF782",
"_  c #FEfd86",
"`  c #FAF28D",
"'  c #FEFF88",
"]  c #F9EF99",
"[  c #FEFE92",
"{  c #F7E2A3",
"}  c #F8E9A1",
"|  c #FAEDAF",
" . c #FBF3A3",
".. c #FEfdA3",
"X. c #FEFEA8",
"o. c #FAEDB7",
"O. c #FAEEB9",
"+. c #FEfdB6",
"@. c #FEFCBF",
"#. c #FCF5C6",
"$. c #FEfdC0",
"%. c #fdFCCD",
"&. c #FEFCD5",
"*. c #FFFED9",
/* pixels */
"                                                                                                    ",
"                                                                                                    ",
"                                        2 2 2 2 2 2 2 2 2 2 2                                       ",
"                                        2 2 2 2 2 2 2 2 2 2 <                                       ",
"                                        1 2 1 2 1 2 2 2 2 2 <                                       ",
"                          < < < < 7 < y ^ ^ ^ J F F m g d g q 7 < < $ . .                           ",
"                        2 2 2 2 2 2 2 S &.&.*.X._ _ ) L V V b 2 2 2 & X o .                         ",
"                        < 2 2 2 2 2 2 Z &.&.&.X._ _ ) C V V b 2 2 1 & X X o                         ",
"                        7 w 7 9 9 9 4 D %.%.%..._ _ ~ C B V h 4 4 4 = o o o                         ",
"                  < 1 1 / O.o.| ( E E Y I Y I L L C L V B N M n n n d 0 q 0 O . . .                 ",
"                  2 2 2 { *.&.%.[ _ ' ! B B B B N N V B V B B V N N h d g s $ X o .                 ",
"                  2 2 2 { *.*.%.[ _ ' ! B B B C N V V V V V V V B B j d s u # X X .                 ",
"                t Z Z Z ] $.@.+.) ! ! P p p p p p p p p p p a n n n j h h g ; * & &                 ",
"          1 2 2 H &.&.&..._ _ _ K B C p o o o o o o o o o o * d d d b C N N g s a 3 o o X           ",
"          2 2 2 H &.&.&..._ _ ) C B N i X X X X o . X X X X * d d d n N B B g d d 3 o o X           ",
"          2 2 2 H &.&.&...) _ ) C B B i o o X X X o X X o . * d d g j V N B g g g 0 o . o           ",
"          2 2 2 A ..X...! L U P , : : > , , , , , , , , , 1 > - = - 0 h h h n j n p o o X           ",
"          2 2 2 c _ _ _ L B B v O . . * d d d d d d d d d d 3 o X X > d d d n V C a o . o           ",
"          1 2 1 c _ _ _ U N V b O o o * d d d d d d d d s d , o . X , d d g n V V a O X X           ",
"          r r r F ~ ~ ~ K v v a $ + + - d d d d d d d d g h 0 % % % 1 s s s M N V l # + + O         ",
"  < 1 2 r o.#.#.] B C C 6 o + $ q u u u d g d d d s g n N B K Q Q Q c 2 2 4 n V V M u u u ; X X X   ",
"  < 2 2 r #.*.*. .B B M - X X + u g d d d d d d d s g M N B L _ _ ' c 1 2 2 j V B M d d d > X o X   ",
"  < 2 2 r #.&.*. .B B B ; X X + u d d d d d d d d s g M B M L ' _ ' c 2 2 2 n N N N d d d ; X X X   ",
"  < 2 2 w  .+.+.` N V M ; X X + q d d d d d d h j j j L U U ! _ _ _ c 2 2 4 n V N n d d d ; X o X   ",
"  2 2 2 9 ! ' _ W N V B ; X X + u d d d g s g j N N C ~ _ _ ' _ _ _ m 2 2 2 n N N M d d d ; X o .   ",
"  < 2 2 w ! ' ' W V V M ; X X # u d d d s s d j N N C ~ _ _ _ ' _ _ c 1 2 2 n N N n d d d ; X X o   ",
"  < 2 2 w ! _ _ W N V M - . X o u s d s g d g n V V C ~ _ ' _ ' _ _ c 2 2 2 n N N N d d d > X X .   ",
"  < 2 2 9 K L L C V V B - . X @ u d d h n n n I ! ! ! _ ' _ ' _ _ _ c 2 2 4 n N V n d d d ; X o X   ",
"  < 2 2 4 n V V V V V B - X o O u s d h N N V W ' ' _ ' _ _ ' _ _ ' z 1 2 2 n V V n g d d ; o X X   ",
"  < 2 2 4 N V V V B V M ; X . O u d d h N B B W _ _ _ _ ' _ _ ' _ ' m 1 2 2 n V V n g d d ; X o o   ",
"  < 2 2 8 b n b M B B B : # # $ 3 0 3 d C L L ! ' _ _ ' ' _ ) E E T m e e e n V C n q 0 q ; . . .   ",
"          2 2 2 f B B B h u d q # o o 5 _ ) _ _ ' _ ' ' _ _ Y 9 4 2 G ) ) ~ K V V g + o o           ",
"          2 2 2 f V V N h d d q + X X 6 _ _ _ _ _ ' _ _ _ _ Y 2 2 2 G ' _ _ C N C a o X o           ",
"          1 2 2 f V V V h d d u O X X 6 _ _ _ _ ' _ _ ' _ _ Y 2 2 2 G ' _ _ K N N l O X X           ",
"          2 2 2 q b h h j n j h , , < 8 c c c c c c c c c c m G G G P I U U n h j i o X o           ",
"          2 2 2 9 d d d n B B M d d s s 2 2 2 < 2 2 2 2 2 2 x _ ' ' U N B B g d d 0 o o o           ",
"          2 2 2 9 d d d n N V M g d d q 2 2 2 2 2 2 1 2 2 2 x _ _ ' U N N B g d g 0 o X o           ",
"          < 2 2 4 d s d n M B n g g g f 9 2 2 9 2 2 9 2 4 2 x ) ) _ I M M M d u u 3 o . .           ",
"                1 4 2 4 d d d h n V V n n n n n n n n n n n N C C L n g g d = O + +                 ",
"                  2 2 2 u d d d n V V V V V V V V V C V V V V N N N h d d u # o o o                 ",
"                  2 2 2 f d d h N N N V V V N V V N N N V N V V B B n d d d # X . o                 ",
"                  1 < < q q q s h j h h n n n n n n n n n n n h b b q , 3 , @ . .                   ",
"                        2 2 2 2 2 2 4 4 d d d d d d d d d d q 2 2 2 & o X X                         ",
"                        2 2 2 2 2 2 2 9 d d d d d d d d d d s 2 2 2 & X o X                         ",
"                        2 2 2 2 4 2 2 4 d d d d d d d d d d s 1 2 2 = X X X                         ",
"                                      2 4 4 4 4 4 4 9 4 9 9 4                                       ",
"                                        4 2 2 2 2 2 4 2 2 2 <                                       ",
"                                        2 2 4 2 2 2 2 2 2 2 <                                       ",
"                                        1 2 2 1 2 1 2 2 1 2 <                                       ",
"                                                                                                    "
};
