/* XPM */
static char *result[] = {
/* columns rows colors chars-per-pixel */
"20 21 26 1 ",
"  c #3D1C0E",
". c #3E1D10",
"X c #3F2011",
"o c #411E0F",
"O c #431E10",
"+ c #44210F",
"@ c #452210",
"# c #4B2512",
"$ c #4E2813",
"% c #522B14",
"& c #582F16",
"* c #572F18",
"= c #5C3217",
"- c #563118",
"; c #5C3319",
": c #603517",
"> c #62361A",
", c #65391B",
"< c #6B3D1D",
"1 c #6D3F21",
"2 c #6F401F",
"3 c #72421F",
"4 c #6E4021",
"5 c #744421",
"6 c #7A4723",
"7 c #7A4823",
/* pixels */
"o#145>;444% X$244-@X",
"=>673>4654&  $<<=@@;",
"6<44<465>-%$$@X$@.&<",
">#@#@*=%%+#,4$.  +@#",
"%>,,%++%%%;<7<%.o>=#",
"<666<@#<665267>@$<6,",
"76663&o$<5466>%+%<77",
"66666,%o#%%%$o#$=673",
"663<,&@o%%%,-$=<35<,",
"53=@+o%=<565<6367>%+",
"%5>@ #<365>=,535<#$%",
"@;%o $>33>$+#$$@+#;2",
" @#@oo%=:%o#;<5#o=<:",
"$,6<%Oo$$o$>166>#=%%",
",6663>%@ +<6665>%$@@",
"*56666<>+#6663>%o o#",
"O$&;,366$#665>%o@#  ",
".O$#$:56<#<5=#+#<<%#",
"%%=<:#:5>@;># #<663<",
";;<55:@#Oo@@o$<66663",
";:661$o  o# O16663<="
};
