/* XPM */
static char *Temp_64x641666527442[] = {
/* columns rows colors chars-per-pixel */
"64 64 232 2 ",
"   c None",
".  c #434A5E",
"X  c #434A5F",
"o  c #424B5F",
"O  c #434B5F",
"+  c #444B60",
"@  c #454C61",
"#  c #464D62",
"$  c #474E63",
"%  c #484F64",
"&  c #495065",
"*  c #4A5165",
"=  c #4C5368",
"-  c #50576C",
";  c #535A6F",
":  c #545A70",
">  c #575E73",
",  c #5B6177",
"<  c #5B6277",
"1  c #5E647A",
"2  c #61677C",
"3  c #61687D",
"4  c #62687D",
"5  c #62697E",
"6  c #676D83",
"7  c #686E81",
"8  c #686F82",
"9  c #696F82",
"0  c #696F85",
"q  c #6B7083",
"w  c #6C7285",
"e  c #6E7586",
"r  c #6F7587",
"t  c #6F758B",
"y  c #70758B",
"u  c #71778D",
"i  c #757B8B",
"p  c #747A8E",
"a  c #757B8F",
"s  c #767B8F",
"d  c #757C8C",
"f  c #757B91",
"g  c #777C90",
"h  c #777D91",
"j  c #787D92",
"k  c #797E92",
"l  c #797E94",
"z  c #7A7F96",
"x  c #7A8094",
"c  c #7A8096",
"v  c #7B8096",
"b  c #7B8196",
"n  c #7C8297",
"m  c #7C8198",
"M  c #7E839A",
"N  c #7F8499",
"B  c #7F8599",
"V  c #80859A",
"C  c #81869B",
"Z  c #80859C",
"A  c #81879C",
"S  c #81879D",
"D  c #82879C",
"F  c #82879D",
"G  c #82889C",
"H  c #82889D",
"J  c #83889D",
"K  c #83899E",
"L  c #83889F",
"P  c #83899F",
"I  c #858A9F",
"U  c #858B9F",
"Y  c #878D9F",
"T  c #8489A0",
"R  c #848AA0",
"E  c #858AA1",
"W  c #858BA1",
"Q  c #868BA2",
"!  c #868CA1",
"~  c #868CA2",
"^  c #878CA2",
"/  c #888EA0",
"(  c #888DA3",
")  c #888EA3",
"_  c #898EA4",
"`  c #898FA4",
"'  c #898EA5",
"]  c #8A8FA5",
"[  c #8A8FA6",
"{  c #8A90A6",
"}  c #8B90A6",
"|  c #8B90A7",
" . c #8B91A7",
".. c #8C91A7",
"X. c #8C91A8",
"o. c #8C92A8",
"O. c #8D92A9",
"+. c #8D93A9",
"@. c #8E93A9",
"#. c #8E93AA",
"$. c #8E94AA",
"%. c #8F94AA",
"&. c #8F94AB",
"*. c #8F95AB",
"=. c #9095AB",
"-. c #9095AC",
";. c #9096AC",
":. c #9196AC",
">. c #9196AD",
",. c #9297AE",
"<. c #9399A8",
"1. c #959BA9",
"2. c #9499AB",
"3. c #9298AE",
"4. c #9398AE",
"5. c #9398AF",
"6. c #9399AF",
"7. c #9499AD",
"8. c #949AAF",
"9. c #959AAF",
"0. c #9499B0",
"q. c #959AB1",
"w. c #969BB1",
"e. c #969BB2",
"r. c #979CB0",
"t. c #969CB1",
"y. c #979CB2",
"u. c #979CB3",
"i. c #989DB1",
"p. c #989DB3",
"a. c #999EB2",
"s. c #9A9FB2",
"d. c #999EB4",
"f. c #9A9FB4",
"g. c #9A9FB5",
"h. c #9BA1B2",
"j. c #9CA2B2",
"k. c #9EA3B2",
"l. c #9FA5B1",
"z. c #9BA0B6",
"x. c #9CA1B6",
"c. c #9CA1B7",
"v. c #9DA2B6",
"b. c #9DA2B7",
"n. c #9EA2B7",
"m. c #9EA3B7",
"M. c #9EA3B8",
"N. c #9FA4B8",
"B. c #9FA4B9",
"V. c #A0A6B2",
"C. c #A0A5B9",
"Z. c #A0A6B9",
"A. c #A0A5BA",
"S. c #A1A6BA",
"D. c #A2A7BB",
"F. c #A5AABB",
"G. c #A3A8BC",
"H. c #A4A9BD",
"J. c #A5AABD",
"K. c #A6ABBE",
"L. c #A6ACBC",
"P. c #A7ACBC",
"I. c #A7ACBD",
"U. c #A6ACBE",
"Y. c #A7ACBF",
"T. c #A8ADBF",
"R. c #A9AEBE",
"E. c #A8ADC0",
"W. c #A9AEC0",
"Q. c #A9AFC0",
"!. c #AAAFC1",
"~. c #ABB1C0",
"^. c #ABB0C2",
"/. c #ADB2C0",
"(. c #ACB1C2",
"). c #ACB1C3",
"_. c #ADB2C3",
"`. c #AFB4C1",
"'. c #AEB3C4",
"]. c #AFB4C4",
"[. c #B0B5C5",
"{. c #B2B7C5",
"}. c #B0B5C6",
"|. c #B1B6C6",
" X c #B1B6C7",
".X c #B2B7C7",
"XX c #B3B8C8",
"oX c #B4B9C9",
"OX c #B5BAC9",
"+X c #B6BCC8",
"@X c #B8BDCB",
"#X c #B8BECA",
"$X c #B9BECC",
"%X c #BABFCD",
"&X c #BAC0CB",
"*X c #BBC0CE",
"=X c #BCC1CC",
"-X c #BCC1CE",
";X c #BDC2CF",
":X c #BEC3D0",
">X c #BFC4D1",
",X c #C0C5D2",
"<X c #C1C6D3",
"1X c #C3C8D4",
"2X c #C6CBD5",
"3X c #C6CBD6",
"4X c #C7CCD7",
"5X c #CACfd7",
"6X c #C8CDD8",
"7X c #C9CED9",
"8X c #CACfd8",
"9X c #CACfdA",
"0X c #CBD0D8",
"qX c #CBD0DA",
"wX c #CCD1DB",
"eX c #CDD2DB",
"rX c #CED3DC",
"tX c #Cfd4DD",
"yX c #D0D5DE",
"uX c #D1D6DE",
"iX c #D1D6DF",
"pX c #D2D7DF",
"aX c #D3D8E0",
"sX c #D4D9E1",
"dX c #D5DAE2",
"fX c #D6DBE2",
"gX c #D7DCE3",
"hX c #D9DEE4",
"jX c #D9DFE5",
"kX c #DADFE5",
"lX c #DBE0E6",
"zX c #DCE1E7",
/* pixels */
"        O X X X X X X X X X X X X X X X X X X X X X X X X X X X X X X X X X X X X X X X X X X X X X X X X X X X X X X O         ",
"        O X X X X X X X X X X X X X X X X X X X X X X X X X X X X X X X X X X X X X X X X X X X X X X X X X X X X X X O         ",
"      o X X X X X X X X X X X X X X X X X X X X X X X X X X X X X X X X X X X X X X X X X X X X X X X X X X X O X X X X O       ",
"    o o X X X O X X X X X X X X X X X X X X X X X X X X X X X X X X X X X X X X X X X X X X X X X X X X X X X O X X X X O O     ",
"O O X X X X + O O O O O X + O O O O O X O O O O X X X X X X X X X X X X X X X X X X X X O O O O X X X X X X O O X X X X O O O O ",
"O O X X X X + + # $ % * % % * % * * % * % * * * * * * * * * * * * * * * * * * * * * * * % * * * * * * * * % $ $ # O X X O O X X ",
"O X X X X + = : > 5 9 r d d s i d d d d s i i d s d d d d d d d d d d d d d d d d d d d s i i d d d d d r 9 4 > ; % O X X X X X ",
"O O X X X + ; 2 y V Y 1.V.V.V.V.V.V.V.V.V.V.V.V.V.V.V.V.V.V.V.V.V.V.V.V.V.V.V.V.V.V.V.V.V.V.V.V.V.V.V.V.1.Y V y 5 : # X X X X X ",
"X X X X O $ , y T r.R.%X5X5X0X0X9X9XeX5X9X0X5X5X5X5XeX5X0X9X9XeX0X0X0X0X9X9XyX9XyX5X0X0X9XyX9X9X0X0X9X5X%XR.9.I y > # + X X X X ",
"X X X X O $ 4 n r.!.;X9XzXzXzXzXzXzXzXzXhXgXpXyXuXyXuXpXgXkXzXzXzXzXzXzXzXzXkXkXkXkXzXzXzXzXkXzXzXzXzXzXeX;X/.9.z 6 # O X X X X ",
"X X X X O $ 9 Y R.,X2XpXzXzXzXzXzXzXzXzXpX5X<X;X;X%X;X1XeXgXzXzXzXzXzXzXzXzXzXkXzXzXzXzXzXzXzXzXzXzXzXzXpX2X%XR./ 9 % O X X X X ",
"X X X O O % r 1.%X9XpXgXzXzXzXzXzXzXzXzXyX,X XK.R.R.K.XX1XuXzXzXzXzXzXzXzXzXzXkXzXzXzXzXzXzXzXkXzXzXzXzXgXpXyX%X1.r % + X X X X ",
"X X X X O % s l.9XkXkXkXzXkXkXkXkXkXkXkX4XOXS.q.q.q.q.J.@X9XkXkXzXkXkXkXkXkXkXkXzXkXkXkXkXkXkXkXzXkXkXkXkXkXzX5Xl.s % X X X X X ",
"X X X X O % r <.$X4X4X4X2X5X2X7X4X2X4X4X%X!.C.q.q.q.q.S.}.,X4X4X2X5X4X2X4X4X4X3X2X5X4X2X4X4X4X4X2X5X2X7X2X2X2X%X<.r % X X X X X ",
"X X X X O $ 9 Y P.XXoX X XoXoXoX XoXoXoX!.H.g.q.q.q.q.g.H.!.oXoXXXXXXXXXoXoXoXoXoXoXXXXXoXoXoXoX XoXoXoXXXXXXXP.Y 5 % + X X X X ",
"X X X X O $ 2 z 9.C.M.C.C.C.C.C.C.C.C.C.g.g.u.q.q.q.r.u.g.g.C.C.C.C.C.C.C.C.C.C.C.C.C.C.C.C.C.g.C.C.C.C.C.C.C.9.V 4 # X X X X X ",
"X X X X X $ 2 s | u.q.q.q.q.q.q.q.q.q.q.q.q.q.q.q.q.q.q.q.q.q.q.q.q.q.q.q.q.q.q.q.q.q.q.q.q.q.q.0.q.q.q.0.e.0.| f 2 $ + X X X X ",
"X X X X X # 1 s | q.q.q.q.q.q.q.q.q.q.q.q.q.q.q.q.q.q.q.q.q.q.q.q.q.q.q.q.q.q.q.q.q.q.q.q.q.q.q.0.q.q.q.e.0.e.| f 1 $ + X X X X ",
"X X X X + $ 1 s | r.q.q.q.q.q.q.q.q.q.q.q.q.q.q.q.q.q.q.q.q.q.q.q.q.q.q.q.q.q.q.q.q.q.q.q.q.q.q.q.q.q.q.0.e.r.| f 1 $ + X X X X ",
"X X X X + $ 1 s | q.q.0.q.q.q.q.q.q.q.q.q.q.q.q.q.q.q.q.q.q.q.q.q.q.q.q.q.q.q.q.q.q.q.q.q.q.q.q.q.q.q.q.e.0.e.O.f 1 $ + X X X X ",
"X X X X + $ > f =.u.n.H.K.H.C.u.q.q.q.q.q.q.q.q.q.q.q.q.q.q.q.q.q.q.q.q.q.q.q.q.q.:.=.[ ( ..=.q.q.q.q.q.q.q.q.| s 1 + + X X X X ",
"X X X X + $ 2 f | g.K. X%X}.H.g.q.q.q.q.q.q.q.q.q.q.q.q.q.q.q.q.q.q.q.q.q.q.q.q.q.=.( F l F ( :.q.q.q.q.q.q.q.O.f 1 $ + X X X X ",
"X X + + + $ 1 f | C.}.,XyX%X}.g.q.q.q.q.q.q.q.q.q.q.q.q.q.q.q.q.q.q.q.q.q.q.q.q.q.O.J l w j J =.q.q.q.q.q.q.q.| f 1 $ + X X X X ",
"X X + + + $ 1 f [ C.oX1XaX1X}.n.q.q.q.q.q.q.q.q.q.q.q.q.q.q.q.q.q.q.q.q.q.q.q.q.q...V p 9 s F =.q.q.q.q.q.q.q.| f 1 + X X X X X ",
"X X X X + $ > f | g.!.oX,X XE.g.q.q.q.q.q.q.q.q.q.q.q.q.q.q.q.q.q.q.q.q.q.q.q.q.e.#.Q Z f V ( :.e.e.e.5.e.e.e.| f 1 $ + + X X X ",
"X X X X + $ 6 u | d.B.E.E.E.C.u.q.q.q.q.q.q.q.q.q.q.q.q.q.q.q.q.q.q.q.q.q.q.q.q.e.>.| [ T ' O.4.5.5.e.e.e.e.e.| f 1 $ + X X X X ",
"X X X X + $ 1 f | 0.e.u.e.u.e.0.q.q.q.q.q.q.q.q.q.q.q.q.q.q.q.q.q.q.q.q.q.q.q.q.5.e.5.>.4.4.q.q.e.e.5.e.5.e.e.| f 1 $ + X X X X ",
"X X X X + $ 1 f | e.e.e.e.0.e.e.q.q.q.q.q.q.q.q.q.q.q.q.q.q.q.q.q.q.q.q.q.q.q.q.e.e.e.e.q.q.q.q.e.5.e.e.5.e.e.| f 1 $ + X X X X ",
"X X X X X + 1 f | e.e.0.e.0.e.0.q.q.q.q.q.q.q.q.q.q.q.q.q.q.q.q.q.q.q.q.q.q.q.q.e.5.e.e.e.5.5.e.e.e.5.e.e.5.e.[ f 2 + + X X X X ",
"X X X X + $ 1 f | e.0.e.0.e.0.e.q.q.q.q.q.q.q.q.q.q.q.q.q.q.q.q.q.q.q.q.q.q.q.q.e.5.e.5.e.e.e.e.5.e.5.e.e.5.e.[ f > $ + X X X X ",
"X X X X + $ > f | e.e.0.e.0.e.0.q.q.q.q.q.q.q.q.q.q.q.q.q.q.q.q.q.q.q.q.q.q.q.q.e.e.5.e.5.e.e.5.e.5.e.e.e.e.e.| f 1 $ + X X X X ",
"X X X X + + 2 f | e.e.e.0.e.0.e.q.q.q.q.q.q.q.q.q.q.q.q.q.q.q.q.q.q.q.q.q.q.q.q.5.e.e.e.5.e.e.5.e.e.e.5.e.e.e.| f 1 + X X X X X ",
"X X X X + # 1 f O.q.q.q.q.q.q.q.q.q.q.q.q.q.q.q.q.q.q.q.q.q.q.q.q.q.q.q.q.q.q.q.q.q.q.q.q.q.q.q.q.q.q.q.q.q.q.X.f 1 $ O X X X X ",
"X X X X X % 1 f X.q.q.q.q.q.q.q.q.q.q.q.q.q.q.q.q.q.q.q.q.q.q.q.q.q.q.q.q.q.q.q.q.q.q.q.q.q.q.q.q.q.q.q.q.q.q.X.f 1 $ O X X X X ",
"X X X X X # 1 f X.q.q.q.q.q.q.q.q.q.q.q.q.:.:.O.:.:.q.q.q.q.q.q.q.q.q.q.q.q.q.q.q.q.q.q.q.q.q.q.q.q.q.q.q.q.q.X.f 1 $ o X X X X ",
"X X X X X % 1 f X.q.q.q.q.q.q.q.q.q.q.q.:.[ W T ' -.0.q.q.q.q.q.q.q.q.q.q.q.q.q.q.q.q.q.q.q.q.q.q.q.q.q.q.q.q.X.f 1 $ o X X X X ",
"X X X X O # 1 f X.q.q.q.q.q.q.q.q.q.q.q.+.W B v T O.q.q.q.q.q.q.q.q.q.q.q.q.q.q.q.q.q.q.q.q.q.q.q.q.q.q.q.q.q.X.f 1 # X X X X X ",
"X X X X O $ 1 f X.q.q.q.q.q.q.q.q.q.q.q.} U z z F [ 0.q.q.q.q.q.q.q.q.q.q.q.q.q.q.q.q.p.p.p.p.u.p.r.q.q.q.q.q.X.f 1 % X X X X X ",
"X X X X o $ 1 f X.q.q.q.q.q.q.q.q.q.q.q.9.9.2.2.3.9.q.q.q.q.q.q.q.q.q.q.q.q.q.q.q.p.S.J.).)./.).E.G.M.q.q.q.q.O.f 1 % X X X X X ",
"X X X X o $ 1 f X.q.q.q.q.q.q.q.q.q.q.q.v.P.R.`.P.M.q.q.q.q.q.q.q.q.q.q.q.q.q.q.q.M.E.OX>X<X>X<X*X).D.q.q.q.q.O.f 1 # X X X X X ",
"X X X X X % 1 f O.q.q.q.q.q.q.q.q.q.q.q.J.OX4X5X%XE.u.q.q.q.q.q.q.q.q.q.q.q.q.q.q.S. X1XsXsXsXsX9X%XE.e.q.q.q.O.f 1 % X X X X X ",
"X X X X X # 1 f O.q.q.q.q.:.:.O.O.&.:.q.J.OX3X7X@XE.u.q.q.q.q.q.q.q.q.q.q.q.q.q.q.S.OX7XzXzXzXzXaX,XE.u.q.q.q.| f 1 # X X X X X ",
"X X X X X % 1 f O.q.q.q.q.O.' V F ' O.q.S.E.OX$X).H.u.q.q.q.q.q.q.q.q.q.q.q.q.q.q.S.OX7XzXzXzXzXuX,X!.u.q.q.q.O.f 1 # X X X X X ",
"X X X X X # 1 f ' q.q.q.q.' V s f V ' q.p.B.J.J.D.g.r.q.q.q.q.q.q.q.q.q.q.q.q.q.q.S.OX7XzXzXzXzXuX;XE.r.q.q.q.| f 1 % X X X X X ",
"X X X X X % 1 f O.q.q.q.9.T l 9 q x T q.q.q.q.q.q.q.q.q.q.q.q.q.q.q.q.q.q.q.q.q.q.S.XX5XhXhXhXlXuX;XE.a.q.q.q.O.f 1 # X X X X X ",
"X X X X X # 1 f ..q.q.q.q...V j d V } q.q.q.q.q.q.q.q.q.q.q.q.q.q.q.q.q.q.q.q.q.q.v.R. X&X;X=X=X+X!.S.q.q.q.q.| f 1 % X X X X X ",
"X X X X X % 1 f O.q.q.q.q.=.' J U ' +.q.q.q.q.q.q.q.q.q.q.q.q.q.q.q.q.q.q.q.q.q.q.r.a.h.k.k.k.k.k.h.a.q.q.q.q.| f 1 % X X X X X ",
"X X X X X # 1 f ..q.q.q.q.4.:.O.=.:.q.q.q.q.q.q.q.q.q.q.q.q.q.q.q.q.q.q.q.q.q.q.q.:.} U V B B B V ( O.q.q.q.q.| f 1 # X X X X X ",
"X X X X + + 1 f | q.q.q.q.q.q.q.q.q.q.q.q.q.q.q.q.q.q.q.q.q.q.q.q.q.q.q.q.q.q.q.q.:.T Z f f f f v F X.0.q.q.q.X.f 1 $ o o O X X ",
"X X X X + % 1 f O.q.q.q.q.q.q.q.q.q.q.q.q.q.q.q.q.q.q.q.q.q.q.q.q.q.q.q.q.q.q.q.q.:.O.T Z Z Z Z T ' &.q.q.q.q.X.f 1 $ o o o X X ",
"X X X X X + 2 f | q.q.q.q.q.q.q.q.q.q.q.q.q.q.q.q.q.q.q.q.q.q.q.q.q.q.q.q.q.q.q.q.5.-.O.[ [ [ [ X.&.:.q.q.q.q.X.f 1 $ o X X X X ",
"X X X X + $ 1 f O.q.q.q.q.q.q.q.q.q.q.q.q.q.q.q.q.q.q.q.q.q.q.q.q.q.q.q.q.q.q.q.q.q.q.q.0.0.0.q.0.q.q.q.q.q.q.X.f 1 $ + X X X X ",
"X X X X X + > u T O.:.:.q.q.q.q.q.q.q.q.q.q.q.q.q.q.q.q.q.q.q.q.q.q.q.q.q.q.q.q.q.q.q.q.q.q.q.q.q.q.q.q.3.&.X.T u > + X X X X X ",
"X X X X + # > 0 z T [ :.q.q.q.q.q.q.q.q.q.q.q.q.q.q.q.q.q.q.q.q.q.q.q.q.q.q.q.q.q.q.q.q.q.q.q.q.q.q.q.q.&.X.T v 0 > # + X X X X ",
"X X X X + + : 2 u m T O.q.q.q.q.q.q.q.q.q.q.q.q.q.q.q.q.q.q.q.q.q.q.q.q.q.q.q.q.q.q.q.q.q.q.q.q.q.q.q.q.O.T m u 6 ; + + X X X X ",
"X X X X X + - 1 6 u z T O.| O.| | O.| O.| O.| | O.| O.| O.| O.| O.[ O.O.[ O.O.[ O.O.[ O.| O.| | X.X.X.X.T v u 6 > - + X X X X X ",
"X X X X X + = : < 6 0 t f f f f f f f f f f f f f f f f f f f f f f f f f f f f f f f f f f f f f f f f y 0 2 1 : = + X X X X X ",
"X X X X X + % = = ; > < 1 1 1 1 1 1 1 1 1 1 1 1 1 1 1 1 1 1 1 1 1 1 1 1 1 1 1 1 1 1 1 1 1 1 1 1 1 1 1 1 > > : - = % + X X X X X ",
"X X X X X X o + $ + + + $ + $ $ # % % # # # % # # % # % # % # % $ $ $ # % # % # # % % # # # % # # % # % % $ + + + + + X X X X X ",
"O O X X X X X X + o + + + + + + X X X X + X X X X X X X X X X X + o o X X X X + X X X X + X X X X X X X o + X X + + + X X X O O ",
"    o O X X X X X X X X + X X X X X X X X X X X X X X X X X X X X X X X X X X X X X X X X X X X X X X X X X X X X X O O X o     ",
"      o X X X X X X X X + X X X X X X X X X X X X X X X X X X X X X X X X X X X X X X X X X X X X X X X X X X X X X X O o       ",
"        o X X X X X X X X X X X X X X X X X X X X X X X X X X X X X X X X X X X X X X X X X X X X X X X X X X X X X O O         ",
"        o X X X X X X X X X X X X X X X X X X X X X X X X X X X X X X X X X X X X X X X X X X X X X X X X X X X X X O O         "
};
