/* XPM */
static char *Temp_48x481666527733[] = {
/* columns rows colors chars-per-pixel */
"48 48 134 2 ",
"   c None",
".  c #434A5F",
"X  c #434B5F",
"o  c #454C61",
"O  c #464D62",
"+  c #484F64",
"@  c #4B5267",
"#  c #4C5268",
"$  c #4E546A",
"%  c #50576C",
"&  c #51586D",
"*  c #52596E",
"=  c #555B70",
"-  c #565D71",
";  c #5A6074",
":  c #5B6177",
">  c #5C6275",
",  c #5D6379",
"<  c #5F6578",
"1  c #606678",
"2  c #63697F",
"3  c #696F81",
"4  c #6B7186",
"5  c #6B7187",
"6  c #6F7588",
"7  c #6E748A",
"8  c #71778D",
"9  c #757A8E",
"0  c #777D93",
"q  c #797E93",
"w  c #797F93",
"e  c #787E94",
"r  c #797F95",
"t  c #7B8094",
"y  c #7D8397",
"u  c #7E8397",
"i  c #7D8299",
"p  c #7E8398",
"a  c #80869B",
"s  c #80869C",
"d  c #82879C",
"f  c #83899F",
"g  c #848A9D",
"h  c #858B9E",
"j  c #878D9E",
"k  c #8489A0",
"l  c #858AA0",
"z  c #858AA1",
"x  c #868BA1",
"c  c #868BA2",
"v  c #868CA1",
"b  c #878DA1",
"n  c #888DA3",
"m  c #898FA3",
"M  c #888DA4",
"N  c #898EA4",
"B  c #8A8FA5",
"V  c #8A8FA6",
"C  c #8D92A2",
"Z  c #8B90A7",
"A  c #8C91A6",
"S  c #8C91A7",
"D  c #8C91A8",
"F  c #8D92A9",
"G  c #8E93A8",
"H  c #8E93AA",
"J  c #8E94AA",
"K  c #8F94AB",
"L  c #9095AB",
"P  c #9095AC",
"I  c #9196AC",
"U  c #9196AD",
"Y  c #9297AD",
"T  c #9297AE",
"R  c #979CAA",
"E  c #9398AF",
"W  c #999FAB",
"Q  c #9499B0",
"!  c #959AB1",
"~  c #969BB2",
"^  c #979CB3",
"/  c #999EB4",
"(  c #999FB4",
")  c #9BA0B5",
"_  c #9CA1B5",
"`  c #9CA1B6",
"'  c #9CA1B7",
"]  c #9FA4B7",
"[  c #9EA3B8",
"{  c #A0A5B9",
"}  c #A1A6BA",
"|  c #A2A7BB",
" . c #A2A8B9",
".. c #A5ABBB",
"X. c #A4A9BD",
"o. c #A5AABC",
"O. c #A6ABBE",
"+. c #A8AEBD",
"@. c #ABB1BE",
"#. c #ADB2BF",
"$. c #A9AEC0",
"%. c #AAAFC1",
"&. c #ABB0C2",
"*. c #B0B5C6",
"=. c #B1B6C6",
"-. c #B2B7C7",
";. c #B4B9C9",
":. c #B5BAC8",
">. c #B5BACA",
",. c #B7BCCA",
"<. c #B9BECC",
"1. c #BABFCD",
"2. c #BDC2CF",
"3. c #BEC3CF",
"4. c #C1C6D2",
"5. c #C3C8D4",
"6. c #C6CBD6",
"7. c #C7CCD7",
"8. c #C9CED8",
"9. c #CACfd9",
"0. c #CBD0DA",
"q. c #CDD2DB",
"w. c #CED3DB",
"e. c #Cfd4DD",
"r. c #D1D6DE",
"t. c #D2D7DF",
"y. c #D2D8DE",
"u. c #D3D8E0",
"i. c #D5DAE1",
"p. c #D5DAE2",
"a. c #D8DDE4",
"s. c #D9DEE5",
"d. c #DBDFE6",
"f. c #DCE1E7",
/* pixels */
"      . . . . . . . . . . . . . . . . . . . . . . . . . . . . . . . . . . . . . . . . . .       ",
"      . . . . . . . . . . . . . . . . . . . . . . . . . . . . . . . . . . . . . . . . . .       ",
"    . . . . . . . . . . . . . . . . . . . . . . . . . . . . . . . . X X . . . . . . . . . .     ",
". . . . . . . . . . . o . . . . . . . . . . . . . . . . . . . . . . X X . . . . . . . . . . . . ",
". . . . O # & - > 1 1 1 1 1 1 1 < < 1 1 1 1 1 1 1 1 1 1 1 1 1 1 1 1 1 1 < < < > - & # O . . . . ",
". . . . # , 7 u C W W W W W W W W W W W W W W W W W W W W W W W W W W W W W W C u 7 , # . . . . ",
". . . . % 7 Z o.3.y.y.y.y.y.y.y.y.r.y.y.y.y.y.r.y.y.y.y.y.y.y.y.y.y.y.y.y.y.y.3...Z 7 & . . . . ",
". . . . - y X.2.q.f.f.f.f.f.f.i.w.6.6.6.0.r.f.f.f.f.f.f.f.f.f.f.f.f.f.f.f.f.f.q.1...y - . . . . ",
". . . . > C 3.w.i.f.f.f.f.f.f.w.2.&.&.&.;.6.s.f.f.f.f.f.f.f.f.f.f.f.f.f.f.f.f.i.w.3.C > . . . . ",
". . . . , R w.s.s.a.a.a.a.s.a.4.$.! ! ! | 2.r.a.a.s.a.a.a.a.a.a.a.a.a.a.a.a.a.a.a.w.R , . . . . ",
". . . . ; j :.2.2.2.2.2.2.2.2.=.| Q ! ! ) $.<.2.2.2.2.2.2.2.2.2.2.2.2.2.2.2.2.3.3.:.j ; . . . . ",
". . . . = q ) | | | | | | | | ' / ! ! ! ! [ | X.| | | | | | | | X.X.[ X.[ X.X.] X.) 0 = . . . . ",
". . . . & 8 K ! ! ! ! ! ! ! ! ! ! ! ! ! ! ! ! ! ! ! ! ! E ! ! ! E ^ E ^ ^ E ^ E E K 8 & . . . . ",
". . . . & 8 Y ! ! ! ! ! ! ! ! ! ! ! ! ! ! ! ! ! ! ! ! ! ! ! ! ! ^ E ^ E E ^ E ^ ^ K 8 * . . . . ",
". . . . & 8 Y ! ! ! ! ! ! ! ! ! ! ! ! ! ! ! ! ! ! ! ! ! ! ! ! ! E ^ E ~ ^ E ^ E ^ K 8 * . . . . ",
". . . . * 8 Y ) X.$.| / ! ! ! ! ! ! ! ! ! ! ! ! ! ! ! ! ! ! ! I Z b Z E E ^ E ^ E T 8 * . . . . ",
". . . . = 8 K X.,.5.&.[ ! ! ! ! ! ! ! ! ! ! ! ! ! ! ! ! ! ! ! V y 9 d K ~ E ~ ~ E L 8 * . . . . ",
". . . . & 8 K &.5.u.2.| ! ! ! ! ! ! ! ! ! ! ! ! ! ! ! ! ! ! ! x 9 3 t A ~ ~ E ~ ~ L 8 * . . . . ",
". . . . = 7 K X.=.2.&.' ! ! ! ! ! ! ! ! ! ! ! ! ! ! ! ! ! ! ! Z d t z K E E ~ ~ ~ K 8 * . . . . ",
". . . . = 8 K / [ [ ' ^ ! ! ! ! ! ! ! ! ! ! ! ! ! ! ! ! ! ! ! E K Z K E ~ ~ ~ E ~ T 8 * . . . . ",
". . . . & 8 K Q ! ! ! ! ! ! ! ! ! ! ! ! ! ! ! ! ! ! ! ! ! ! ! ! Q ~ Q ~ Q ~ Q ~ E K 8 * X X . . ",
". . . . = 8 K ^ ! ! ! ! ! ! ! ! ! ! ! ! ! ! ! ! ! ! ! ! ! ! ! ! ~ Q ~ Q ~ Q ~ Q ~ T 8 * . X . . ",
". . . . = 7 K ! ! ! ! ! ! ! ! ! ! ! ! ! ! ! ! ! ! ! ! ! ! ! ! ! Q ~ Q ~ Q ~ Q ~ E K 8 * . . . . ",
". . . . & 8 Y ! ! ! ! ! ! ! ! ! ! ! ! ! ! ! ! ! ! ! ! ! ! ! ! ! ~ Q ~ Q ~ Q ~ Q ~ K 8 * . . . . ",
". . . . & 8 K Q ! ! ! ! ! ! ! ! ! ! ! ! ! ! ! ! ! ! ! ! ! ! ! ! Q ~ Q ~ Q ~ Q ~ ~ K 8 * . . . . ",
". . . . * 8 K ~ ! ! ! ! ! ! ! Q E E E ! ! ! ! ! ! ! ! ! ! ! ! ! ~ Q ~ Q ~ Q ~ Q ~ K 8 & . . . . ",
". . . . = 8 K ~ ! ! ! ! ! ! ! K Z x D E ! ! ! ! ! ! ! ! ! ! ! ! Q ~ Q ~ Q ~ Q ~ Q K 8 = . . . . ",
". . . . * 8 K ~ ! ! ! ! ! ! ! D p r k K ! ! ! ! ! ! ! ! ! ! ! ! ~ Q ~ Q ~ Q ~ Q ^ K 7 & . . . . ",
". . . . * 8 K Q ! ! ! ! ! ! ^ K Z j Z E ! ! ! ! ! ! ! ! ! ! ! / [ X.X.X.[ ^ ~ ~ ~ K 0 & . . . . ",
". . . . * 8 K ~ ! ! ! ! ! ! ! ) ..@.X.^ ! ! ! ! ! ! ! ! ! ! Q | &.2.2.2.>.$.^ Q Q K 7 & . . . . ",
". . . . * 8 K ~ ! ! ! ! ! ! ^ +.4.y.,.X.! ! ! ! ! ! ! ! ! ! ! $.5.a.a.a.0.;.^ ~ ~ K 8 = . . . . ",
". . . o * 8 K ~ ! Q K b b K E X.,.6.&._ ! ! ! ! ! ! ! ! ! ! ! &.6.f.f.f.e.;.) Q ~ K 8 * . . . . ",
". . . . * 8 K ~ ! Q b t t b Q ) X.&.[ ) Q Q ~ Q ~ Q ~ Q Q ~ Q &.6.f.f.f.e.;.) ~ Q K 8 * o . . . ",
". . . . * 8 K ~ Q T p 7 7 p T ~ ~ Q ^ Q Q ~ Q ~ Q ~ Q ~ ~ Q ~ $.3.a.a.u.8.=.^ ~ ^ K 8 * X . . . ",
". . . . * 8 K ! ! Q M i i b Q ~ Q ~ Q ~ ~ Q ~ Q ~ Q ~ Q Q ~ ^ ) ..&.@.@.+.[ ~ ~ ~ K 8 * . . . . ",
". . . . = 8 K ~ ! Q K J F T Q Q ~ Q ~ Q Q ~ Q ~ Q ~ Q ~ ~ Q ~ K C g g g b F Q Q Q K 8 * . . . . ",
". . . . * 8 K ~ Q ~ Q ~ ~ ~ Q ~ Q ~ Q ~ Q ~ Q ~ ~ Q ~ Q ~ Q Q D p t 0 0 i M Q Q ^ K 8 & . . . . ",
". . . . * 8 K ! ~ Q ~ Q ~ Q ~ Q ~ Q ~ Q ~ Q ~ Q Q ~ Q ~ Q ~ ~ K D k k k M K Q ~ Q T 8 & . . . . ",
". . . . * 7 K Q Q ~ Q ~ Q ~ Q ~ Q ~ Q ~ Q ~ Q ~ ~ Q ~ Q ~ Q ~ Q Q Q Q Q Q Q ~ Q ~ K 8 & . . . . ",
". . . . & 5 c J T Q ~ Q ~ Q ~ Q ~ Q ~ Q ~ Q ~ Q Q ~ Q ~ Q ~ Q ~ Q Q Q Q Q Q Q T F z 5 % . . . . ",
". . . . # 3 t i D ~ ~ ~ Q ~ ~ ~ Q Q ! ^ ! ! ^ ~ ! ! ! ! ! ! ! ! ^ ^ Q ^ ! ^ ! F f t < $ o . . . ",
". . . . @ : 5 0 z K K T K K K K K K K K K K K K Y K K Y K K Y Y K K K K K K K x 0 5 : $ o . . . ",
". . . . + % ; 3 5 8 8 8 8 8 8 8 7 0 0 7 0 7 0 7 8 8 8 8 8 8 8 8 8 8 7 8 8 8 8 5 2 ; & + . . . . ",
". . . . o + @ $ & & & & * * * & & & & $ & & $ = $ = & & = & & & & = = & & = & $ $ @ + o . . . . ",
". o o o . . . . . . . . o . . . . . . . . . . . o . . . . . . . o . . . . . . . . . . . . . . . ",
"    . . . . . . . . . . X . . . . . . . . . . . o o . . . . . . . . . . . . . . . . . . . .     ",
"      o . . . . . . . . . . . . . . . . . . . . . . . . . . . . . . . . . . . . . . . . o       ",
"      . . . . . . . . . . . . . . . . . . . . . . . . . . . . . . . . . . . . . . . . . o       "
};
