/* XPM */
static char *a3cd2192e3f5400f977d3de3df569c5a3g5dYfbdTWDmEhov[] = {
/* columns rows colors chars-per-pixel */
"91 91 132 2 ",
"   c #464F54",
".  c #484F55",
"X  c #475055",
"o  c #485156",
"O  c #475258",
"+  c #4D565B",
"@  c #4F585D",
"#  c #50575D",
"$  c #50595E",
"%  c #4F5A60",
"&  c #545D62",
"*  c #576065",
"=  c #586166",
"-  c #5C656A",
";  c #5D686C",
":  c #646E74",
">  c #677075",
",  c #697277",
"<  c #6C757B",
"1  c #6F797E",
"2  c #707A7F",
"3  c #6F7A80",
"4  c #747E84",
"5  c #768186",
"6  c #778288",
"7  c #7C868D",
"8  c #7E898E",
"9  c #7F8A90",
"0  c #808B8F",
"q  c #818C92",
"w  c #869096",
"e  c #889196",
"r  c #879298",
"t  c #8B969C",
"y  c #8D999F",
"u  c #8E9AA0",
"i  c #929DA3",
"p  c #94A1A7",
"a  c #96A2A8",
"s  c #9AA6AD",
"d  c #9CA9AF",
"f  c #9EABB2",
"g  c #A1AEB5",
"h  c #A5AFB8",
"j  c #A4B0B6",
"k  c #A5B2BA",
"l  c #A9B6BE",
"z  c #AAB7BF",
"x  c #AAB6BD",
"c  c #A9B5BC",
"v  c #ACB9BF",
"b  c #ABB8C0",
"n  c #ACB9C1",
"m  c #AEB8C1",
"M  c #ADBAC0",
"N  c #ADBAC2",
"B  c #AEBBC3",
"V  c #AFBCC4",
"C  c #ADBAC2",
"Z  c #B0BAC3",
"A  c #B0BDC5",
"S  c #B1BEC6",
"D  c #B1BEC7",
"F  c #B2BFC7",
"G  c #B4BEC7",
"H  c #B1BEC6",
"J  c #B5BFC8",
"K  c #B1C0C7",
"L  c #B4C1C7",
"P  c #B2C0C6",
"I  c #B3C0C8",
"U  c #B2C1C8",
"Y  c #B2C0C9",
"T  c #B3C0C9",
"R  c #B3C2C9",
"E  c #B4C1C9",
"W  c #B6C0C9",
"Q  c #B5C2C8",
"!  c #B7C2C8",
"~  c #B4C1CA",
"^  c #B7C1CA",
"/  c #B5C2CA",
"(  c #B4C3CA",
")  c #B4C2CB",
"_  c #B5C2CB",
"`  c #B6C3CB",
"'  c #B5C4CB",
"]  c #B6C3CC",
"[  c #B7C4CC",
"{  c #B6C4CD",
"}  c #B7C4CD",
"|  c #B7C6CD",
" . c #B5C2CA",
".. c #B8C2CB",
"X. c #B8C5CD",
"o. c #B9C6CC",
"O. c #B9C6CE",
"+. c #B8C7CE",
"@. c #BAC7CF",
"#. c #B9C6CE",
"$. c #B9C8CF",
"%. c #BBC8CE",
"&. c #BCC9CF",
"*. c #BAC8CF",
"=. c #B9C7D0",
"-. c #BAC7D0",
";. c #BDC7D0",
":. c #BBC7D0",
">. c #BBC8D0",
",. c #BAC9D0",
"<. c #BAC8D1",
"1. c #BBC8D1",
"2. c #BCC9D1",
"3. c #BEC8D1",
"4. c #BECBD1",
"5. c #BCC9D2",
"6. c #BFC9D2",
"7. c #BDCAD2",
"8. c #BECBD3",
"9. c #BECDD4",
"0. c #BFCED5",
"q. c #BCC9D1",
"w. c #C1CBD4",
"e. c #C0CDD5",
"r. c #C0CDD6",
"t. c #C4D1D7",
"y. c #C3D0D7",
"u. c #C3D0D8",
"i. c #C3D2D9",
"p. c #C4D1D9",
"a. c #C6D0D9",
"s. c #C4D1D9",
/* pixels */
"d f d d d d f d d d d k | ` ` ` ` T ` ` T T o.g O # # # + & F | ` ` L ` T T ` ` ` T ` ` L T ` T ` ` T ` T ` ` ` ` L T O.f + + o @ o - T | ` ` T ` ` ` L T ` ` T ` ` ` T ` ` ` L T ` ` ",
"d d d d d d d d d d d l ] ` ` T ` T ` L ` ` o.f O # # # + & B ..T ` ` ` ` ` ` L ` T ` L ` ` [ T ` L ` L ` L ` T T ` ` O.f + @ @ @ + = T ` ` L ` ` T T ` ` ` L ` ` T L ` ` T T ` ` ` T ",
"d d d d f d d d d d a k ` ` ` ` L ` ` ` L T O.f o @ @ # + & B [ ` ` T T L ` T ` L ` ` ` T L T T ` T ` T ` ` T ` ` ` L *.f + @ + # o = F ` T ` ` ` L ` ` ` T T ` L ` ` ` ` L ` T ` T ` ",
"d d d f d d d f d f d k ` ` ` T ` ` T T ` F *.g + @ + @ + & B [ ` L ` ` ` ` T ` ` [ T T [ ` ` ` ` L ` ` T ` ` L ` T T O.f o # + @ + = F ` ` ` T T ` ` T L ` ` ` ` T ` T T ` ` ` ` T ` ",
"d d d d d d d d d d s k ` ` ` F ` T ` ` ` J o.f o % + % O & B [ ` ` L ` T T ` ` T T [ ` ` [ ` [ T ` ` L ` T ` ` ` D ` O.f + + + # o = L ` ` ` ` ` ` ` T ` ` ` T ` ` ` ` ` ` ` ` ` ` ` ",
"f f f f f f f f g g d l [ ` L ` ` T ` L ` ` o.f + + + + + = B ] T T ` ` ` ` ` L ` T T L V F V F F [ ` ` ` ` ` T ` ` ` =.f + + + @ + - T ` ` D L ` T L ` ` T L ` F ` F ` ` F F F F V V ",
"] ` ` ` ] ` ` ` ` ` ` T ` L ` T L ` ` ` ` G O.g + + + % + = Z O.` ` ` T L ` T ` ` ` j d f d d d z ` ` ` T L ` ` ` ` T =.d + + + + o = F ` ` ` ` ` T ` ` ` T ` ` ` ` ` F ` k s d f f f ",
"` ` T ` ` T T ` ` L ` T ` T ` ` ` ` T G ` ` O.g + + + + O & Z O.` L ` T ` ` T ` T ` j d d d d d l | ` T ` ` T ` ` D D =.f + % + + + = F ` ` ` ` L ` ` T L ` ` T F ` ` ` | j d d d d d ",
"T ` ` L ` T T ` ` T ` T ` ` T ` ` J ` ` ` D O.f + + + @ + & B | T T ` ` ` ` ` ` ` ` g d f d d d l | T ` ` ` ` T ` J ` O.f + + + % o = F ` ` ` D T L [ L [ T Q [ ` F ` ` ` k d d d d d ",
"` ` T ` ` ` ` ` ` ` ` ` ` L T ` ` ` ` J ` T O.d + % + @ + & B ) ` ` ` L ` ` D ` F ` g d d d d d l ` L ` L T ` ` ` ` T O.d o @ @ $ o ; ` ` T L ` [ [ T [ T L [ Q ` ` ` F ` j d d d d d ",
"[ [ [ [ ` [ [ [ ` [ [ [ [ [ ` [ | ] | ` ] ` =.f + O @ @ + & V | ` ` ` ` | ] | | ` [ k d f d f d b O.[ | [ [ [ [ ` ` ` q.f + # % @ o = ` ] ` | ] [ [ [ [ [ [ [ [ ] ` ` ` | k d d f d f ",
"V V V V V V V F B B V V V V V V V B B F F B ` s O % + + + * b D B F B B V Z B V B F g a a s s a k F V V V V V L B F B F d o @ + @ + = v V B F B V V V V V V V V F B B F F g a d s s a ",
"* * * * = = * = = = = & * = * * = * * & = & & & # + + + + @ & * = & & = * * = * = * & = & & & & & & = = = = * = * * * = & + + + @ + # * * * * * * * * * * * * * & = * & = * & & & & & ",
"o + o + o + + o + o + + + o + + o + + + + + + + # + + + + + + + + + + + o + o + o + o + + + + + + + o + o + + o o + + o + + + @ + + + + o + + + o + + o + + o + + + + + + + + + o + + ",
"@ @ # @ # @ @ @ @ @ @ @ @ # + @ @ @ @ @ # # @ % + + # + + @ + @ @ # @ @ # @ @ @ # @ @ + @ + + + @ @ # @ @ @ @ $ # @ @ @ + + + @ + @ @ @ # # @ @ @ @ @ @ $ $ # # + + # @ + + + + @ + + ",
"@ + @ @ + + @ + + + @ + @ + + + + @ + @ @ @ # @ + + @ + + @ @ @ + + @ + @ @ @ + @ @ + @ + + @ + + + @ @ + + @ + + @ @ + @ @ + + + @ + + @ @ + @ + @ @ @ + + + + + + @ + + + @ + @ @ @ ",
"+ + + @ + + + + + + + + + + + + + + @ @ @ @ @ @ + + + + + + @ @ @ @ @ + + @ @ + @ + + + @ + + @ + + + @ + + + + + + @ @ + + + @ + + + + @ + @ @ @ @ + + + + + + @ + @ @ + + + + + + + ",
"+ @ @ @ + + + + + + + + + + + + + + @ o + o + + + + + + + + o + + @ o + + + @ + + + + + + + @ o + + + + + + + + + + @ o + + + + + + + + + + o + + + + + # # # + + + @ o + + + + + + + ",
"@ + + @ X w c j h h j s y u i u y a j h g h g h g j g g h h h h h g j g - + + + # o r l j g h h s u i u i y s j g j h h f h g h g h h g g h f h k = o % # # o u k g j j j a u i i u u ",
"+ + @ # X p 0.[ O.O.*.B f f g f d c O.O.| =.| | O.O.=.O.=.| | | =.| *.O.; o # # @ o s r.| | O.=.c f g f g d c *.O.O.| O.,.=.| | O.O.O.O.=.| ,.=.O.; o @ # $ o f 0.| ..O.O.l f d d g f ",
"@ + + & X i *.L L ` ` c d d d d d k ` L T T T T F T ` L T L T T T ` T L - + + + @ O a *.F ` L ` c s d d d s k [ T L ` T T T T T F ` F F ` D ] D T - X # # @ X d ,.T T ` ] k d d d d d ",
"+ + @ @ X u ,.T T ` ` l a d d d d j ] T ] ` ` ` ` L ` T ` ` ` L ` T ` T ; X + + # O a ,.F ` ` ` k s d d d s j [ ` T ` T ] ` ` ` ` ` ` ` ` ` ` ] T ; + @ @ # + d ,.T ` T ] k d d d d d ",
"@ + + @ X i q.T ` T [ l d f d f d j ` ` ` ` ` T ` ` T ` ` T ` ` T ` ` T - + # + @ X a q.F ` ` | c d d d d d j [ T ` L ` ` T ` T ` D D ` ` D D ] ` ; + # @ @ o f *.` ` T ` k d d d d d ",
"@ + @ @ X i ,.L ` ` [ l a d d d s h ` ` L T ` ` T ` ` L ` ` T ` ` ` ( T - + # + @ X s ,.F ` ` ] k s d d d s k O.` ` ` ` ` ` ` ` ` ` ` ` ` ` ` ` L - . + + @ o d *.L ` ` ` k d d d d d ",
"@ @ + # O i :.T ] ` ` F b B B B b V T ] L ` ` ` T L ` T ` ` L ` ` ` [ T - + # + @ + p ,.` ` T ] F l B B V b z j j j j j k ] ` ` ` ` F ` F ` ` ` L - + + # # o s *.T L T [ V z V B B B ",
"+ + @ #   i q.J ` T ` ` ` ` ` ` | ) ` T ` ` T ` ` ` ` ` T ` ` T T ` T ` ; X # + @ X p =.J J ` ` ` ` ` ` | | b s d d d s f | T ` ` F ` ` ` ` D ` ` ; X # # $ o f ,.T [ T [ [ [ [ ` ` ` ",
"@ @ @ @ X i q.D T ` ` T T ` ` ` ` T ` ` ` T ` ` ` T T ` T ` ` J ` ` L T - + @ + @ X a =.` ` T ` ` ` T ` T ` z f f d d d g ` ` ` ` ` ` ` F ` D ` L - + + + # o f ,.( T [ ` T T [ ` T ` ",
"+ @ @ # X i q.J ` L ` ` ` J ` ` ` ` ` T ` T ` ` ` ` L ` ` ` T ` ` ` ( L - X @ @ # X a =.J ` ` T ` T ` T ` | z s d d d d g T ` T ` F ` ` ` ` ` ` ` - o # + + o d *.T [ T ` ` L ` ` ` ` ",
"@ + @ @   u :.D F T ` G L T ` F L T T T T L ` J F F ` G T L ` ` ` L L F ; O # # + + i =.F F ` F L F D ` L [ z d d s d s g [ L L ` G ` F ` L F ` L - + @ + # o d | F F ` L L F T ` D T ",
"o @ @ & X a a.:.q.q.q.q.q.q.q.q.q.,.8.8.q.q.q.q.q.q.q.q.q.q.q.q.q.q.q.w.; o # # + + d u.:.q.,.q.q.q.q.q.&.8.L f g j j j k 8.q.,.q.q.q.q.q.q.q.q.w.- X @ + + o j i.q.q.q.q.q.q.q.q.8.q.",
"@ @ @ @ + < 9 7 7 7 7 7 7 7 7 8 7 7 7 7 7 7 7 7 7 7 7 7 7 7 7 7 7 7 7 7 & + # # + + 1 9 7 7 8 7 7 7 7 7 7 8 6 2 1 2 2 1 5 7 7 8 7 7 7 7 7 7 7 7 7 & + @ + + + 4 0 7 7 7 7 7 7 7 7 7 7 ",
"@ @ @ o + O     X   X   X       X                     X   X             + + + + + + .   .       .       X X X o o O X X X                     X   + + + + + + .               X     X ",
"+ + + @ + @ & # @ @ @ @ # # # # $ $ $ $ $ $ $ $ # @ @ @ @ @ @ # # # @ $ @ + @ + @ @ @ @ @ # @ $ $ @ & @ @ # $ @ @ @ @ + # $ $ $ # # & @ @ @ @ # & + o @ @ + + @ # # @ @ # # $ # & @ # ",
"@ @ + @ + + + + @ @ @ @ @ @ @ # + # @ # + + + + @ @ @ @ @ + @ @ + @ @ @ @ @ @ + @ @ @ + @ @ @ @ @ @ @ @ @ @ + @ @ + + @ @ + + + + + + + @ @ @ + @ + @ @ @ @ + @ @ @ @ @ @ @ @ @ + + + ",
"@ # @ # # & # + @ # & @ @ # & # $ @ # # $ @ # # @ @ + + @ + # # # @ # # # # @ @ # # # # @ @ # @ @ @ @ @ # $ # # + + @ + + @ $ $ # & # # @ & @ @ @ @ @ & # # & # @ # & @ @ @ @ @ + @ @ ",
"X X X X X X   + X X X X X X X X X O X X X o X X + @ + @ + +   X X X X X X X X X X X X . X X X X X X X X X X X # + + + + + X o X X     + X X X X X X X X X X . X X X X X X o + @ + @ + ",
"5 4 6 4 4 4 4 4 6 5 4 5 4 4 5 4 5 5 , 1 < , 1 > + @ + + + & 4 5 4 4 5 5 2 < < < < < 2 4 5 4 4 4 5 4 4 5 4 6 > O $ + + + * 5 5 5 4 4 4 4 4 4 5 4 5 4 4 4 6 4 4 4 6 4 6 4 6 = @ @ + @ + ",
"q.q.q.q.q.q.q.q.q.q.q.q.q.=.q.q.8.L d j j f k y o @ @ @ + * L q.8.q.q.,.k g j g g f ` q.q.q.q.O.q.w.q.=.,.s.i   $ + # o > e.o.*.q.q.8.q.8.q.q.,.q.q.q.q.q.q.q.=.8.:.,.,.y.6 X @ + @ + ",
"D F ` D D ` F F F F ` F F F F F [ v d d d d f t o + @ @ o * B ` ` J T T f s s d d d z ` ` G F ` D D ` F T =.y X @ + + o : ` ` G F F D F ` D L F T D T F J D ` F J D L V *.5 X @ + + @ ",
"` ` ` ` D ` ` ` ` ` ` ` ` ` ` ` [ v s s d d f y + @ + @ + & B ] ` ` [ T f d d d d d B ` ` ` F ` ` ` ` ` T q.y X $ @ + o : O.T ` ` ` ` ` ` ` ` T ` ` ` ` ` ` ` ` ` ` ` T ,.4 X $ @ + + ",
"` ` ` ` ` D ` ` F ` ` ` ` ` F ` [ v d d d d f y o @ @ @ + & B ` J ` ` T g d d d d d v ` ` ` ` ` ` F ` ` J &.u X $ @ @ o > =.T ] ` T ` ` T ` L ` T L [ T L ` T ` ` ` ` F q.4 X + + + @ ",
"` ` ` ` ` ` F ` ` ` ` F ` F ` ` [ v a d d d d t + + @ @ + * B O.` T ` ` f d d d s s B [ F F F ` ` ` ` D T q.u X $ + @ o > | T ] ` T ` L T ` ` ` ` [ [ [ [ [ [ ` D ` ` D q.5 X & + + + ",
"B B B B B ` ` ` F ` F ` ` ` ` ` [ V j j j j c p + @ + @ o & V ] ` T ` D k g g g j g V ` ` ` ` ` ` F ` ` L q.y X # @ @ o : | T ` L ` ` ` ` ` T T [ v z V B v v L ` ` ` F q.4 X # @ + + ",
"d d s s s l ` ` ` ` ` ` ` F ` F ( [ L [ Q [ *.d o @ + @ + * V | ` ` ` ` ` ` ` ` ` ` T ` ` F ` F ` ` ` ` F q.y   $ @ @ o : | T ` ` ` T T ` L ` ` [ f d d d d s V ` ` ` D ,.5 X # + @ # ",
"d d d d d B ` ` L ` ` ` ` D L ` ` T ` ` [ L *.f + @ + @ o * V [ T ` ` ` F ` ` ` L ` T ` ` T ` ` ` ` ` F F q.y X # + + . : O.J ] ` T ` ` ` ` ` T [ f d d d d d V ` ` ` ` O.4 X @ + @ + ",
"d f d d s b ` ` ` ` D ` ` ` ` ` ` T ` ` L T O.g o + @ @ @ & V | ` ` F ` ` ` ` F T ` L ` L ` ` ` F ` ` ` ` q.y . # + + + : =.T T ` ` ` L L T ` ` ` f d d d d d P ` J ` D q.4 X & + + @ ",
"d d d d d b ` F ` F F ` D ` ` F L ` J T G ` O.f + @ @ @ + * V T F L T ` F ` F ` L T ` ` T F F ` ` F F ` F =.y X & + # X : O.` T L T T L T T ` L Q f d d s d s V ` D ` F q.4 X # @ @ + ",
"f f g f d B O.O.O.` O.O.` O.O.] | ` O.[ O.[ q.g o @ @ @ o * K *.[ O.O.| O.` O.O.| O.[ ` | O.O.` ` O.O.` | 0.y X @ @ + + : =.| O.O.| O.O.[ O.[ [ *.j d f j d d P O.| O.` w.4 X # + + + ",
"p p p p p f c k z c c c x x x x c c c c c c v a + + + # + * j l c c c c x x c c x x x x x c c c c l x x k V w O @ + $ o > v c c c c c c c c c c c a p p p p p j z z z k Z 2 o + + @ @ ",
"# # # # $ $ & @ $ $ $ $ $ $ $ $ & $ # $ $ $ $ # + + + + + + @ @ $ $ $ $ $ $ $ # $ $ $ $ $ $ $ $ # # $ $ $ @ $ + + + + + + @ & $ $ $ $ $ $ $ $ $ @ $ $ @ $ $ + # # $ $ $ $ # + + @ + + ",
"+ + + + + + + + + + + + + + # + + o + + + + + + + @ + @ @ + o + + + + + + # + + @ @ + + + + + + + + # + @ + + @ $ + + @ + + + + + + + + + @ + + + + + + + + + + + + + + + + @ @ + + + ",
"# + + + + + + + @ + + + + + + # + @ + + + + + + + + + @ @ @ @ @ + # + + # + @ + + @ + + + # + + + # + + + @ + @ + @ + + + + + + + + + @ + + + + + @ + + + @ + @ + + + + @ @ + + + @ + ",
"+ + $ + + + + + + + @ @ + + # + @ @ + + @ @ @ @ + + + + + @ @ + + + + + + @ + + + + @ + + + @ + + + + + + + @ + + + + @ + + + + + + @ + # + + + + + + $ + + @ + + + + @ + + @ + + + + ",
"@ + @ + + + + + + + + + + + + + + + + + o @ o + + + + + o + @ # # + + + + + + + + + + + + + + + + + + + + + o + + + + @ + + + + + + + + + + # + + + + + + + + + + + + + + + + + + + + ",
"+ @ + + + $ $ $ $ $ $ $ $ $ $ $ $ $ $ & & & & @ $ $ $ & & & + o @ + + + # $ & $ $ $ $ $ & $ $ & $ + $ $ $ $ $ * % & & @ @ & $ & & $ $ + # # + # + $ $ $ $ & $ $ $ & $ & $ & $ & # & & ",
"+ + + @ o 6 d p p p p p a p p a p d z b b b b b V v v M M k * + $ @ + + d Z v B v v v v b z B b j p a a a p d v b z b b M z v v c v k * + + + + @ f A v v v v z b b M z B b b b b b z ",
"+ + + @ O 7 j d f f f f f f f f f j *.| | | | | | | [ [ | L = + + + + o j ,.[ | | | | | | | [ | k d f f f f k O.| | | | | | | | [ *.B & o @ + @ @ l *.[ | | | | | | | | | | | | ` [ [ ",
"@ @ + # X 7 j s d d d d d d d d a j | T T T L L ( T T ` [ L * o $ + + + g | L ( T L T T L ` T ` k d d d f d j | T ( T ( ` L T T ` [ B & + + @ + + k O.T [ T T L T [ T T [ L T T T L T ",
"+ + + $ O 7 j s d d d d d d d d d j [ L ` ` T T [ L T T [ V * + # + @ + g O.T [ L ` ` ` ` ` T ` l d d d d d j | [ T [ T ` L [ ` T [ B & + @ + + @ k O.T ( ` L ` ( [ T L [ L [ T ` ` ` ",
"+ @ + + O 7 g d d d d f d d f d d j T ( ` T [ ` ` ( ` ` [ V = + @ + + + g | L ` ` ` T L T ` ` [ k d f s f d j [ T [ L L ` ` [ T L [ z & o @ + @ # k | L [ T [ T [ L T [ T [ T [ T ` ` ",
"+ @ + $ X 8 g s d d s s d d d d s j Q L [ [ [ [ T [ L ` [ V * + @ + + + j *.` ` Q L ` ` T ` ` ` k s f d d d j | T [ [ [ T [ L T T [ z & o @ @ + # k ,.` [ L ` [ L T [ L [ [ [ [ ` ` ` ",
"@ + + @ X w [ V V V V V P M v K P z j j f j f j [ T [ T [ V * o @ + + + i j g g g g V ` ` ` T ` T V V b V V b f j j f j k [ L [ T [ B & + + + @ @ k | T T [ T ( [ ` T ` [ k f j g g g ",
"+ + + $   t 8.T [ [ [ ` Q [ | Q [ V d s d d d f T [ T [ [ V * + + @ + + y d s d d s B ` ` T ` ` ` ] | ] [ [ V a d d d s f [ T [ ` [ B & o @ @ @ @ k *.T ` T [ T L T T [ | k a d d d d ",
"@ + + $ X y ,.L T L [ T ( [ Q [ [ V d d d d d f [ T ` L [ K = + @ + + + y g d s d d z ` ` ` T ` ` T ` ` T [ V d d d d d j Q T ` T | b & + @ @ @ @ k *.T L [ T [ T [ ` [ | c d d d d f ",
"+ + + $ X t 8.L T [ L [ ( ` T ` [ V d d d d d f [ T ` ` T V * + @ @ + @ u f d d d d M ( ` ` ` ` ` ` ` ` T | z d d d d d j T ` ` J | B & O + + # @ k ,.D ` ` T ` ` ` T ` ] k d d d d d ",
"+ @ + $ X t *.L [ T T T L L T T T V s d d d d f L [ T F ` V = + @ + @ o u f s s d d b ' F ` F F ` F ` D F ` l s d d d s f L D ` F ` v & # # + + + j ` ` G ` ` T L T ` D ` k d d d d d ",
"$ + + $   y y.O.*.*.*.*.,.,.*.| q.L f g f f f j ,.q.*.*.q...* o @ @ @ o i j f g j f T 8.O.O.,.,.*.,.,.O.o.q.F g j f j f k ,.,.,.:.q.F & + + + # % B 0.*.q.O.*.*.:.=.O.,.,.B f j f g g ",
"+ + @ @ o : 4 4 4 4 5 4 4 4 4 4 4 1 < , < < < , 4 2 4 4 4 4 $ + + @ @ @ : < , < > , 1 4 4 4 4 4 4 4 4 4 4 4 2 > < , > < < 4 4 4 4 4 2 # # + + + + < 4 4 4 4 4 4 4 4 4 4 4 1 , > > , < ",
"@ + + @ @ X X + o X X X X X X o   X X X o o + X O o X O X O + + @ @ + @ o X + X o o X X X X X X X X X X . X + X o o o o X X X X X X X @ + + + + + X X X X X X X   . X X X X + X o o X ",
"+ + + + @ @ @ + $ $ $ $ $ $ $ $ @ @ @ @ # # @ @ $ @ @ @ # @ + + @ @ @ + # @ + @ @ @ @ @ # @ @ & @ & @ @ # # @ @ @ @ @ @ # $ $ # $ # @ + + # + + + @ $ $ $ $ $ # # # @ @ $ @ @ @ # # # ",
"@ + + + + + @ + + + + + + + + + @ @ + @ @ @ @ @ + + @ @ + # + + @ @ @ @ # @ + @ @ @ @ @ @ @ @ o @ + @ @ + + + + @ @ + @ @ @ + # @ @ @ @ @ @ + @ + + @ + @ @ + + @ @ @ @ @ @ @ + @ @ + ",
"@ # + & + @ @ @ @ @ $ $ + + @ + + + # @ & @ @ @ $ $ $ @ $ $ $ $ $ @ @ $ $ # # @ # @ @ @ @ @ @ @ @ @ @ # @ & # @ @ $ # $ @ @ @ + @ @ @ $ # # # # # @ + + @ + + # # # @ @ @ @ @ @ @ @ + ",
"X X X X X X X X X X X o + + + + @ @ X   X X X   X X X X X X X X .       X       X X + @ @ + @ @ o X X         X     X     X X X X X X X X X X     + + + + + + X X X X X X X X X o X X ",
"5 4 5 5 4 5 5 5 5 4 5 > + $ + # o = q 9 0 7 8 q 0 8 0 8 8 8 0 8 0 q 0 0 0 8 0 0 7 w ; o @ @ + o < q 8 8 0 0 0 0 0 0 q 0 8 4 5 5 5 5 2 8 0 8 8 0 q & + + + # + 2 q 8 9 9 8 7 2 4 5 5 5 ",
"g j j g f j j f g g k 7 X + + @ X 3 y.,.&.e.q.q.&.,.8.8.q.,.8.&.q.q.q.q.q.q.q.q.*.i.1 O % @ $ X r s.q.q.q.q.q.q.q.q.q.q.| g g g j j k *.q.q.q.,.8.; X # + # . d i.,.7.,.0.v j j j j f ",
"s d d s d d d d d s g 6 o $ + $ X < | L L L T F L L L T T L L L F F ` F L L ` F L | < X + @ @ X q *.F ` T T J F T L F ` b d d s s s d Q T ` T L L ; o # # # o a =.L L L [ k s d s d d ",
"d d d d d d d d d d g 6 O @ + $ + < =.T ` ` F ` ` L T ` ` T ` T ` F ` F ` ` ` L T ,.1 X + @ # X q 0.F ` ` L ` ` ` T ` ` V d d f d s g L ( ( T [ ` = o # # # X s ,.D ` ` [ k s d d d d ",
"d d d d d d d f d s j 6 X @ + @   < O.` ` D J ` T ` ` L ` ` ` ` ` ` ` ` ` D ` ` T *.1 o @ @ @ X q q.` ` ` ` ` ` ` ` ` ` B f d d d d d T [ T [ T ` ; + # + # X a ,.` ` ` o.k d d d d d ",
"s d s d d d d d s s g 6 X # + @ + < =.` ` ` ` T ` ` ` ` ` ` ` ` ` O.` ` ` F ` ` L *.< X @ + $ X w q.` ` ` ] | ` ` ` L L B d s d d d f L T [ T [ ` - X $ @ @ X p q.T J ` [ k d d d d d ",
"k k k k k k j j j j v 8 X $ + $   1 O.D L ` ` ` ` T T ` ` T B b l B l B F ` ` ` L *.1 X @ @ # X q L l B l b B ` T ` ` ` F k k k k j k Q [ T T [ L - O # + @ X s *.T ` T | k d d d d d ",
"` ` ` ` ] ] ] ] ` ` 8.w   & @ #   < =.J T ` ` T ` ` ` F ` ` d s d d s d Z ` ` L T ,.1 X @ @ @ O 5 f a d d s h ..F ` F ` ` ` ] ] ] ` ` ` ` T T ` L ; o $ + # o a *.` ` ` [ k d d d d d ",
"` ` ` ` ` ` ` ` ` L q.w   # + @ X < =.` ` ` T ` ` L F ` F ` f d d d d d V ` ` ` T *.1 X @ @ @ X 6 f f d d d k ] ` ` ` ` ` ` ` ` ` ` L ` ` ` ] ] L ; + + + # o a :.` ` G [ k d d d d d ",
"` T ` ` ` ` ` T T T 7.r   @ + @   1 O.] ` ` ` D T ` ` ` ..L d d d d d d F ` ` T ..o.< X @ @ # o 6 j d d d d k ` ` ` ` ` ` ` ] ` ` ` ` T T ` ` ` L - o # # $ o a ,.T ` T [ k d d d d d ",
"T L F ` T F ` ] ` F ,.w   @ + @ . < O.F J F ` ` ` F F ` ` L f d d d d s B ` L L ` o.2 X @ @ # X 5 g s d d s g ` F F F ` F F D J ` F ` T ` D T ` L ; + # + + X p O.L T L ` k s d d d d ",
"O.=.O.=.,.,.=.,.O.| y.r   & + @ X 1 8.O.,.,.=.=.,.,.,.,.*.O.g g g g d g ` O.*.*.O.8.2 X @ + @ X 6 k g f g f l &.O.=.O.=.,.=.=.=.O.=.O.:.*.*.=.=.O.; X # + @ o s r.O.=.=.q.b f f g f g ",
"f g f g f f f f f f k 7 O @ + + + : j f f f h f g f f f g f y y y u y y d g f g f k > X + @ # X 2 i t y y r i h g f g g f g g g f f f g f f g f g = + # + @ o t k f f f g a y y y y y ",
"+ + + + o @ + o + + o @ + @ + & + + X + + + o + + + + o o + o + + X + + + + + o o o @ @ + @ + @ + o + + + + + + + + + + + o + + o + + + + + + + + + + + # @ + + + o + + O + + + o + + ",
"+ + + + + @ @ + + @ @ + + + + + + + + + + + @ @ + + @ + @ @ @ + + + + + + + @ + # @ + @ + + @ + + + + + + + + + + + # O + + + + + + + + + + + + + + + + + + + @ + + + @ # + + + + + @ ",
"+ + @ + @ @ + + + @ + + + @ @ + @ + + @ + + + @ + + @ + @ @ + + @ + + + @ + @ + @ + + + + + @ + # + + + # + + @ @ + + + @ + + @ @ + + # @ @ + @ + + @ + + @ + + + + @ + @ + + + + + + ",
"+ + + + + + @ # @ + + @ + + + @ + + @ + @ @ + + + + + + + + + @ + @ @ + + @ + @ + + @ @ @ @ + + + + @ + + @ + + + + @ + + @ + @ + @ + @ + + + + @ + + @ + + @ + @ @ + + + + @ @ @ + + ",
"+ + + + + @ + + @ + + + @ + + # + @ @ + + + + @ + + + + + @ + # + + @ + + @ + + @ + @ + + + + @ @ + @ + + @ @ + + @ @ + + @ + + + @ + + @ + @ + @ + + @ @ + @ + + + + @ @ + # + + + @ "
};
